<svg width="818" height="649" viewBox="0 0 818 649" fill="none" xmlns="http://www.w3.org/2000/svg">
<path d="M735 130H566.611C566.611 130 583.313 79.7998 608.999 79.7998C634.684 79.7998 642.754 114.442 642.754 114.442C642.754 114.442 660.09 95.6273 674.325 95.6273C688.56 95.6273 700.945 120.496 700.945 120.496C700.945 120.496 721.047 107.131 735 130V130ZM575.302 38.4565H482.029C482.029 38.4565 502.913 5.20593 519.288 5.20593C535.662 5.20593 540.569 27.3734 540.569 27.3734C540.569 27.3734 552.161 17.0254 562.896 18.8882C573.631 20.7509 575.302 38.4565 575.302 38.4565ZM238.721 44.9872H116C116 44.9872 137.073 0.652144 159.859 0.00896138C182.645 -0.634221 194.759 33.5588 194.759 33.5588C194.759 33.5588 230.431 2.07773 238.721 44.9872ZM413.743 109.78H330.892C330.892 109.78 345.136 79.8861 360.569 79.4489C376.003 79.0118 384.128 102.077 384.128 102.077C384.128 102.077 408.146 80.7826 413.743 109.78V109.78Z" fill="white"/>
<path d="M368.266 165.074H227.032V467.916H368.266V165.074Z" fill="#E6E6E6"/>
<path d="M342.591 165.074H227.032V467.916H342.591V165.074Z" fill="#F0F0F0"/>
<path d="M369.93 165.074H223.988V170.012H369.93V165.074ZM369.93 155.182H223.988V160.116H369.93V155.182Z" fill="#E0E0E0"/>
<path d="M366.871 160.116H227.032V165.054H366.871V160.116V160.116Z" fill="#F0F0F0"/>
<path d="M259.694 182.893H237.997V206.731H259.694V182.893V182.893Z" fill="#E6E6E6"/>
<path d="M259.694 182.893H239.912V206.731H259.694V182.893V182.893Z" fill="#F5F5F5"/>
<path d="M292.574 182.893H270.877V206.731H292.574V182.893V182.893Z" fill="#E6E6E6"/>
<path d="M292.574 182.893H272.792V206.731H292.574V182.893V182.893Z" fill="#F5F5F5"/>
<path d="M325.436 182.893H303.739V206.731H325.436V182.893Z" fill="#E6E6E6"/>
<path d="M325.436 182.893H305.653V206.731H325.436V182.893V182.893Z" fill="#F5F5F5"/>
<path d="M259.694 218.016H237.997V241.855H259.694V218.016V218.016Z" fill="#E6E6E6"/>
<path d="M259.694 218.016H239.912V241.855H259.694V218.016V218.016Z" fill="#F5F5F5"/>
<path d="M292.574 218.016H270.877V241.855H292.574V218.016V218.016Z" fill="#E6E6E6"/>
<path d="M292.574 218.016H272.792V241.855H292.574V218.016V218.016Z" fill="#F5F5F5"/>
<path d="M325.436 218.016H303.739V241.855H325.436V218.016Z" fill="#E6E6E6"/>
<path d="M325.436 218.016H305.653V241.855H325.436V218.016V218.016Z" fill="#F5F5F5"/>
<path d="M259.694 282.316H237.997V306.155H259.694V282.316V282.316Z" fill="#E6E6E6"/>
<path d="M259.694 282.316H239.912V306.155H259.694V282.316V282.316Z" fill="#F5F5F5"/>
<path d="M292.574 282.316H270.877V306.155H292.574V282.316V282.316Z" fill="#E6E6E6"/>
<path d="M292.574 282.316H272.792V306.155H292.574V282.316V282.316Z" fill="#F5F5F5"/>
<path d="M325.436 282.316H303.739V306.155H325.436V282.316Z" fill="#E6E6E6"/>
<path d="M325.436 282.316H305.653V306.155H325.436V282.316V282.316Z" fill="#F5F5F5"/>
<path d="M259.694 317.431H237.997V341.27H259.694V317.431V317.431Z" fill="#E6E6E6"/>
<path d="M259.694 317.431H239.912V341.27H259.694V317.431V317.431Z" fill="#F5F5F5"/>
<path d="M292.574 317.431H270.877V341.27H292.574V317.431V317.431Z" fill="#E6E6E6"/>
<path d="M292.574 317.431H272.792V341.27H292.574V317.431V317.431Z" fill="#F5F5F5"/>
<path d="M325.436 317.431H303.739V341.27H325.436V317.431Z" fill="#E6E6E6"/>
<path d="M325.436 317.431H305.653V341.27H325.436V317.431V317.431Z" fill="#F5F5F5"/>
<path d="M259.694 388.896H237.997V412.734H259.694V388.896V388.896Z" fill="#E6E6E6"/>
<path d="M259.694 388.896H239.912V412.734H259.694V388.896V388.896Z" fill="#F5F5F5"/>
<path d="M292.574 388.896H270.877V412.734H292.574V388.896V388.896Z" fill="#E6E6E6"/>
<path d="M292.574 388.896H272.792V412.734H292.574V388.896V388.896Z" fill="#F5F5F5"/>
<path d="M325.436 388.896H303.739V412.734H325.436V388.896Z" fill="#E6E6E6"/>
<path d="M325.436 388.896H305.653V412.734H325.436V388.896V388.896Z" fill="#F5F5F5"/>
<path d="M259.694 424.015H237.997V447.854H259.694V424.015V424.015Z" fill="#E6E6E6"/>
<path d="M259.694 424.015H239.912V447.854H259.694V424.015V424.015Z" fill="#F5F5F5"/>
<path d="M292.574 424.015H270.877V447.854H292.574V424.015V424.015Z" fill="#E6E6E6"/>
<path d="M292.574 424.015H272.792V447.854H292.574V424.015V424.015Z" fill="#F5F5F5"/>
<path d="M325.436 424.015H303.739V447.854H325.436V424.015Z" fill="#E6E6E6"/>
<path d="M325.436 424.015H305.653V447.854H325.436V424.015V424.015Z" fill="#F5F5F5"/>
<path d="M368.266 258.621H227.032V260.832H368.266V258.621ZM368.266 368.55H227.032V370.761H368.266V368.55ZM203.188 255.747H105.497V516.923H203.188V255.747Z" fill="#E0E0E0"/>
<path d="M175.366 255.747H105.497V516.923H175.366V255.747Z" fill="#F0F0F0"/>
<path d="M138.693 277.21H112.687V291.085H138.693V277.21Z" fill="#E6E6E6"/>
<path d="M138.693 277.21H114.416V291.085H138.693V277.21Z" fill="#F5F5F5"/>
<path d="M168.779 277.21H142.773V291.085H168.779V277.21Z" fill="#E6E6E6"/>
<path d="M168.761 277.21H144.499V291.085H168.761V277.21Z" fill="#F5F5F5"/>
<path d="M138.693 303.316H112.687V317.192H138.693V303.316Z" fill="#E6E6E6"/>
<path d="M138.693 303.316H114.416V317.192H138.693V303.316Z" fill="#F5F5F5"/>
<path d="M168.779 303.316H142.773V317.192H168.779V303.316Z" fill="#E6E6E6"/>
<path d="M168.761 303.316H144.499V317.192H168.761V303.316Z" fill="#F5F5F5"/>
<path d="M138.693 336.684H112.687V350.559H138.693V336.684Z" fill="#E6E6E6"/>
<path d="M138.693 336.684H114.416V350.559H138.693V336.684Z" fill="#F5F5F5"/>
<path d="M168.779 336.684H142.773V350.559H168.779V336.684Z" fill="#E6E6E6"/>
<path d="M168.761 336.684H144.499V350.559H168.761V336.684Z" fill="#F5F5F5"/>
<path d="M138.693 355.844H112.687V369.719H138.693V355.844Z" fill="#E6E6E6"/>
<path d="M138.693 355.844H114.416V369.719H138.693V355.844Z" fill="#F5F5F5"/>
<path d="M168.779 355.844H142.773V369.719H168.779V355.844Z" fill="#E6E6E6"/>
<path d="M168.761 355.844H144.499V369.719H168.761V355.844Z" fill="#F5F5F5"/>
<path d="M138.693 387.343H112.687V401.218H138.693V387.343Z" fill="#E6E6E6"/>
<path d="M138.693 387.343H114.416V401.218H138.693V387.343Z" fill="#F5F5F5"/>
<path d="M168.779 387.343H142.773V401.218H168.779V387.343Z" fill="#E6E6E6"/>
<path d="M168.761 387.343H144.499V401.218H168.761V387.343Z" fill="#F5F5F5"/>
<path d="M138.693 406.503H112.687V420.378H138.693V406.503Z" fill="#E6E6E6"/>
<path d="M138.693 406.503H114.416V420.378H138.693V406.503Z" fill="#F5F5F5"/>
<path d="M168.779 406.503H142.773V420.378H168.779V406.503Z" fill="#E6E6E6"/>
<path d="M168.761 406.503H144.499V420.378H168.761V406.503Z" fill="#F5F5F5"/>
<path d="M138.693 440.78H112.687V454.656H138.693V440.78Z" fill="#E6E6E6"/>
<path d="M138.693 440.78H114.416V454.656H138.693V440.78Z" fill="#F5F5F5"/>
<path d="M168.779 440.78H142.773V454.656H168.779V440.78Z" fill="#E6E6E6"/>
<path d="M168.761 440.78H144.499V454.656H168.761V440.78Z" fill="#F5F5F5"/>
<path d="M138.693 466.084H112.687V479.959H138.693V466.084Z" fill="#E6E6E6"/>
<path d="M138.693 466.084H114.416V479.959H138.693V466.084Z" fill="#F5F5F5"/>
<path d="M168.779 466.084H142.773V479.959H168.779V466.084Z" fill="#E6E6E6"/>
<path d="M168.761 466.084H144.499V479.959H168.761V466.084Z" fill="#F5F5F5"/>
<path opacity="0.05" d="M203.188 325.734H105.497V328.129H203.188V325.734ZM203.188 377.323H105.497V379.718H203.188V377.323ZM203.188 429.372H105.497V431.751H203.188V429.372Z" fill="black"/>
<path d="M203.17 248.014H100.89V256.349H203.173V248.014H203.17Z" fill="#E0E0E0"/>
<path opacity="0.05" d="M203.188 248.014H179.809V256.349H203.188V248.014Z" fill="black"/>
<path d="M541.348 119.715H426.636V447.271H541.348V119.715Z" fill="#E6E6E6"/>
<path d="M498.888 119.715H384.176V447.271H498.888V119.715Z" fill="#F0F0F0"/>
<path d="M488.886 141.945H394.192V158.639H488.886V141.949V141.945Z" fill="#E6E6E6"/>
<path d="M488.871 141.945H397.854V158.639H488.871V141.949V141.945Z" fill="#F5F5F5"/>
<path d="M488.886 170.047H394.192V186.737H488.886V170.047Z" fill="#E6E6E6"/>
<path d="M488.871 170.047H397.854V186.737H488.871V170.047Z" fill="#F5F5F5"/>
<path d="M488.886 199.219H394.192V215.909H488.886V199.219V199.219Z" fill="#E6E6E6"/>
<path d="M488.871 199.219H397.854V215.909H488.871V199.219V199.219Z" fill="#F5F5F5"/>
<path d="M488.886 228.419H394.192V245.112H488.886V228.423V228.419Z" fill="#E6E6E6"/>
<path d="M488.871 228.419H397.854V245.112H488.871V228.423V228.419Z" fill="#F5F5F5"/>
<path d="M488.886 257.595H394.192V274.288H488.886V257.599V257.595Z" fill="#E6E6E6"/>
<path d="M488.871 257.595H397.854V274.288H488.871V257.599V257.595Z" fill="#F5F5F5"/>
<path d="M488.886 286.794H394.192V303.484H488.886V286.794Z" fill="#E6E6E6"/>
<path d="M488.871 286.794H397.854V303.484H488.871V286.794Z" fill="#F5F5F5"/>
<path d="M488.886 318.948H394.192V335.641H488.886V318.952V318.948Z" fill="#E6E6E6"/>
<path d="M488.871 318.948H397.854V335.641H488.871V318.952V318.948Z" fill="#F5F5F5"/>
<path d="M488.886 351.125H394.192V367.815H488.886V351.125Z" fill="#E6E6E6"/>
<path d="M488.871 351.125H397.854V367.815H488.871V351.125Z" fill="#F5F5F5"/>
<path d="M488.886 383.299H394.192V399.992H488.886V383.299Z" fill="#E6E6E6"/>
<path d="M488.871 383.299H397.854V399.992H488.871V383.299Z" fill="#F5F5F5"/>
<path d="M488.886 415.46H394.192V432.154H488.886V415.46Z" fill="#E6E6E6"/>
<path d="M488.871 415.46H397.854V432.154H488.871V415.46Z" fill="#F5F5F5"/>
<path d="M544.327 116.422H380.931V124.41H544.327V116.422ZM544.327 102H380.931V109.988H544.327V102Z" fill="#E0E0E0"/>
<path d="M538.903 108.415H384.176V116.402H538.903V108.415Z" fill="#F0F0F0"/>
<path d="M541.348 141.945H509.384V158.639H541.348V141.949V141.945Z" fill="#E0E0E0"/>
<path d="M541.348 169.405H509.384V186.098H541.348V169.409V169.405Z" fill="#E0E0E0"/>
<path d="M541.348 196.88H509.384V213.573H541.348V196.884V196.88Z" fill="#E0E0E0"/>
<path d="M541.348 228.399H509.384V245.088H541.348V228.399Z" fill="#E0E0E0"/>
<path d="M541.348 257.594H509.384V274.288H541.348V257.598V257.594Z" fill="#E0E0E0"/>
<path d="M541.348 286.794H509.384V303.483H541.348V286.794Z" fill="#E0E0E0"/>
<path d="M541.348 318.948H509.384V335.641H541.348V318.952V318.948Z" fill="#E0E0E0"/>
<path d="M541.348 351.125H509.384V367.815H541.348V351.125ZM541.348 383.287H509.384V399.976H541.348V383.287ZM541.348 415.46H509.384V432.154H541.348V415.46ZM800.989 370.964H791.786V386.775H800.989V370.964ZM800.989 396.851H791.786V412.666H800.989V396.851ZM800.989 421.987H791.786V437.798H800.989V421.987ZM800.989 448.584H791.786V464.399H800.989V448.584V448.584ZM800.989 474.454H791.786V490.27H800.989V474.454Z" fill="#E0E0E0"/>
<path d="M800.989 355.073H704.199V516.815H800.989V355.073Z" fill="#E6E6E6"/>
<path d="M784.651 355.073H704.218V516.815H784.651V355.073Z" fill="#F0F0F0"/>
<path d="M776.862 370.964H711.455V386.776H776.862V370.964ZM776.862 396.851H711.455V412.666H776.862V396.851ZM776.862 422.718H711.455V438.533H776.862V422.718ZM776.862 448.584H711.455V464.399H776.862V448.584ZM776.862 474.455H711.455V490.27H776.862V474.455Z" fill="#EBEBEB"/>
<path d="M776.847 370.964H713.849V386.776H776.847V370.964ZM776.847 396.851H713.849V412.666H776.847V396.851ZM776.847 422.718H713.849V438.533H776.847V422.718ZM776.847 448.584H713.849V464.399H776.847V448.584ZM776.847 474.455H713.849V490.27H776.847V474.455Z" fill="#F5F5F5"/>
<path d="M391.594 218.911H226.814V572.225H391.594V218.911Z" fill="#E6E6E6"/>
<path opacity="0.4" d="M361.643 218.911H226.814V572.225H361.643V218.911Z" fill="white"/>
<path d="M393.542 218.911H223.272V224.671H393.542V218.911ZM393.542 207.375H223.272V213.151H393.542V207.375Z" fill="#E6E6E6"/>
<path d="M389.963 213.15H226.814V218.911H389.963V213.15V213.15Z" fill="#F0F0F0"/>
<path d="M264.937 239.716H239.61V267.542H264.937V239.716Z" fill="#E6E6E6"/>
<path opacity="0.2" d="M264.937 239.716H241.841V267.542H264.937V239.716Z" fill="white"/>
<path d="M303.288 239.716H277.961V267.542H303.288V239.716Z" fill="#E6E6E6"/>
<path opacity="0.2" d="M303.292 239.716H280.196V267.542H303.292V239.716Z" fill="white"/>
<path d="M341.628 239.716H316.302V267.542H341.628V239.716Z" fill="#E6E6E6"/>
<path opacity="0.2" d="M341.624 239.716H318.532V267.542H341.624V239.716Z" fill="white"/>
<path d="M264.937 280.683H239.61V308.51H264.937V280.683Z" fill="#E6E6E6"/>
<path opacity="0.2" d="M264.937 280.683H241.841V308.51H264.937V280.683Z" fill="white"/>
<path d="M303.288 280.683H277.961V308.51H303.288V280.683Z" fill="#E6E6E6"/>
<path opacity="0.2" d="M303.292 280.683H280.196V308.51H303.292V280.683Z" fill="white"/>
<path d="M341.628 280.683H316.302V308.51H341.628V280.683Z" fill="#E6E6E6"/>
<path opacity="0.2" d="M341.624 280.683H318.532V308.51H341.624V280.683Z" fill="white"/>
<path d="M264.937 355.692H239.61V383.519H264.937V355.692Z" fill="#E6E6E6"/>
<path opacity="0.2" d="M264.937 355.692H241.841V383.519H264.937V355.692Z" fill="white"/>
<path d="M303.288 355.692H277.961V383.519H303.288V355.692Z" fill="#E6E6E6"/>
<path opacity="0.2" d="M303.292 355.692H280.196V383.519H303.292V355.692Z" fill="white"/>
<path d="M341.628 355.692H316.302V383.519H341.628V355.692Z" fill="#E6E6E6"/>
<path opacity="0.2" d="M341.624 355.692H318.532V383.519H341.624V355.692Z" fill="white"/>
<path d="M264.937 396.664H239.61V424.49H264.937V396.664Z" fill="#E6E6E6"/>
<path opacity="0.2" d="M264.937 396.664H241.841V424.49H264.937V396.664Z" fill="white"/>
<path d="M303.288 396.664H277.961V424.49H303.288V396.664Z" fill="#E6E6E6"/>
<path opacity="0.2" d="M303.292 396.664H280.196V424.49H303.292V396.664Z" fill="white"/>
<path d="M341.628 396.664H316.302V424.49H341.628V396.664Z" fill="#E6E6E6"/>
<path opacity="0.2" d="M341.624 396.664H318.532V424.49H341.624V396.664Z" fill="white"/>
<path d="M264.937 480.047H239.61V507.87H264.937V480.047Z" fill="#E6E6E6"/>
<path opacity="0.2" d="M264.937 480.047H241.841V507.87H264.937V480.047Z" fill="white"/>
<path d="M303.288 480.047H277.961V507.87H303.288V480.047Z" fill="#E6E6E6"/>
<path opacity="0.2" d="M303.292 480.047H280.196V507.87H303.292V480.047Z" fill="white"/>
<path d="M341.628 480.047H316.302V507.87H341.628V480.047Z" fill="#E6E6E6"/>
<path opacity="0.2" d="M341.624 480.047H318.532V507.87H341.624V480.047Z" fill="white"/>
<path d="M264.937 521.015H239.61V548.841H264.937V521.015Z" fill="#E6E6E6"/>
<path opacity="0.2" d="M264.937 521.015H241.841V548.841H264.937V521.015Z" fill="white"/>
<path d="M303.288 521.015H277.961V548.841H303.288V521.015Z" fill="#E6E6E6"/>
<path opacity="0.2" d="M303.292 521.015H280.196V548.841H303.292V521.015Z" fill="white"/>
<path d="M341.628 521.015H316.302V548.841H341.628V521.015Z" fill="#E6E6E6"/>
<path opacity="0.2" d="M341.624 521.015H318.532V548.841H341.624V521.015Z" fill="white"/>
<path opacity="0.2" d="M391.594 328.073H226.814V330.652H391.594V328.073ZM391.594 456.304H226.814V458.879H391.594V456.304Z" fill="white"/>
<path d="M618.473 267.538H504.509V572.225H618.473V267.538Z" fill="#E6E6E6"/>
<path opacity="0.4" d="M591.202 267.538H504.509V572.225H591.202V267.538Z" fill="white"/>
<path d="M543.248 292.566H512.916V308.745H543.248V292.566Z" fill="#E6E6E6"/>
<path opacity="0.2" d="M543.248 292.566H514.928V308.745H543.248V292.566Z" fill="white"/>
<path d="M578.337 292.566H548.004V308.745H578.337V292.566Z" fill="#E6E6E6"/>
<path opacity="0.2" d="M578.337 292.566H550.017V308.745H578.337V292.566Z" fill="white"/>
<path d="M543.248 323.027H512.916V339.206H543.248V323.027Z" fill="#E6E6E6"/>
<path opacity="0.2" d="M543.248 323.027H514.928V339.206H543.248V323.027Z" fill="white"/>
<path d="M578.337 323.027H548.004V339.206H578.337V323.027Z" fill="#E6E6E6"/>
<path opacity="0.2" d="M578.337 323.027H550.017V339.206H578.337V323.027Z" fill="white"/>
<path d="M543.248 361.947H512.916V378.126H543.248V361.947Z" fill="#E6E6E6"/>
<path opacity="0.2" d="M543.248 361.947H514.928V378.126H543.248V361.947Z" fill="white"/>
<path d="M578.337 361.947H548.004V378.126H578.337V361.947Z" fill="#E6E6E6"/>
<path opacity="0.2" d="M578.337 361.947H550.017V378.126H578.337V361.947Z" fill="white"/>
<path d="M543.248 384.305H512.916V400.488H543.248V384.305Z" fill="#E6E6E6"/>
<path opacity="0.2" d="M543.248 384.305H514.928V400.488H543.248V384.305Z" fill="white"/>
<path d="M578.337 384.305H548.004V400.488H578.337V384.305Z" fill="#E6E6E6"/>
<path opacity="0.2" d="M578.337 384.305H550.017V400.488H578.337V384.305Z" fill="white"/>
<path d="M543.248 421.053H512.916V437.236H543.248V421.053Z" fill="#E6E6E6"/>
<path opacity="0.2" d="M543.248 421.053H514.928V437.236H543.248V421.053Z" fill="white"/>
<path d="M578.337 421.053H548.004V437.236H578.337V421.053Z" fill="#E6E6E6"/>
<path opacity="0.2" d="M578.337 421.053H550.017V437.236H578.337V421.053Z" fill="white"/>
<path d="M543.248 443.411H512.916V459.59H543.248V443.411Z" fill="#E6E6E6"/>
<path opacity="0.2" d="M543.248 443.411H514.928V459.59H543.248V443.411Z" fill="white"/>
<path d="M578.337 443.411H548.004V459.59H578.337V443.411Z" fill="#E6E6E6"/>
<path opacity="0.2" d="M578.337 443.411H550.017V459.59H578.337V443.411Z" fill="white"/>
<path d="M543.248 483.396H512.916V499.575H543.248V483.396Z" fill="#E6E6E6"/>
<path opacity="0.2" d="M543.248 483.396H514.928V499.575H543.248V483.396Z" fill="white"/>
<path d="M578.337 483.396H548.004V499.575H578.337V483.396Z" fill="#E6E6E6"/>
<path opacity="0.2" d="M578.337 483.396H550.017V499.575H578.337V483.396Z" fill="white"/>
<path d="M543.248 512.936H512.916V529.114H543.248V512.936Z" fill="#E6E6E6"/>
<path opacity="0.2" d="M543.248 512.936H514.928V529.114H543.248V512.936Z" fill="white"/>
<path d="M578.337 512.936H548.004V529.114H578.337V512.936Z" fill="#E6E6E6"/>
<path opacity="0.2" d="M578.337 512.936H550.017V529.114H578.337V512.936Z" fill="white"/>
<path d="M618.49 258.529H499.153V268.257H618.49V258.529Z" fill="#E6E6E6"/>
<path opacity="0.2" d="M618.49 258.529H591.216V268.257H618.49V258.529Z" fill="black"/>
<path d="M504.508 402.076H493.776V420.522H504.508V402.076Z" fill="#E0E0E0"/>
<path d="M504.508 432.258H493.776V450.704H504.508V432.258Z" fill="#E0E0E0"/>
<path d="M504.508 461.601H493.776V480.047H504.508V461.601Z" fill="#E0E0E0"/>
<path d="M504.508 492.625H493.776V511.071H504.508V492.625Z" fill="#E0E0E0"/>
<path d="M504.508 522.811H493.776V541.257H504.508V522.811Z" fill="#E0E0E0"/>
<path d="M504.509 383.539H391.595V572.225H504.509V383.539Z" fill="#E6E6E6"/>
<path opacity="0.3" d="M485.438 383.519H391.595V572.225H485.438V383.519V383.519Z" fill="white"/>
<path d="M476.341 402.076H400.031V420.522H476.341V402.076Z" fill="#E6E6E6"/>
<path d="M476.341 432.258H400.031V450.704H476.341V432.258Z" fill="#E6E6E6"/>
<path d="M476.341 462.443H400.031V480.889H476.341V462.443Z" fill="#E6E6E6"/>
<path d="M476.341 492.625H400.031V511.071H476.341V492.625Z" fill="#E6E6E6"/>
<path d="M476.341 522.811H400.031V541.257H476.341V522.811Z" fill="#E6E6E6"/>
<g opacity="0.1">
<path opacity="0.1" d="M476.341 402.076H402.843V420.522H476.341V402.076Z" fill="white"/>
<path opacity="0.1" d="M476.337 432.258H402.843V450.704H476.337V432.258Z" fill="white"/>
<path opacity="0.1" d="M476.337 462.443H402.843V480.889H476.337V462.443Z" fill="white"/>
<path opacity="0.1" d="M476.337 492.625H402.843V511.071H476.337V492.625Z" fill="white"/>
<path opacity="0.1" d="M476.337 522.811H402.843V541.257H476.337V522.811Z" fill="white"/>
</g>
<path d="M159.111 441.491H83.3496V572.225H204.253V441.491V383.519L159.111 441.491V441.491Z" fill="#E6E6E6"/>
<path d="M226.818 383.519H204.256V572.225H226.818V383.519V383.519Z" fill="#E6E6E6"/>
<path opacity="0.7" d="M226.818 383.518H204.256V572.225H226.818V383.518V383.518ZM391.598 224.667H361.628V572.225H391.598V224.667V224.667Z" fill="white"/>
<path opacity="0.6" d="M504.508 383.519H485.441V572.225H504.508V383.519V383.519Z" fill="white"/>
<path opacity="0.7" d="M618.49 268.253H591.216V572.225H618.49V268.253Z" fill="white"/>
<path opacity="0.5" d="M634.446 216.021H630.156V235.492H634.446V216.021Z" fill="white"/>
<path opacity="0.5" d="M634.446 248.781H630.156V268.253H634.446V248.781Z" fill="white"/>
<path opacity="0.5" d="M634.446 282.838H630.156V302.31H634.446V282.838Z" fill="white"/>
<path opacity="0.5" d="M634.446 316.9H630.156V336.372H634.446V316.9Z" fill="white"/>
<path opacity="0.5" d="M634.446 350.942H630.156V370.414H634.446V350.942Z" fill="white"/>
<path opacity="0.5" d="M634.446 385H630.156V404.471H634.446V385Z" fill="white"/>
<path opacity="0.5" d="M634.446 422.534H630.156V442.002H634.446V422.534ZM634.446 460.065H630.156V479.533H634.446V460.065V460.065Z" fill="white"/>
<path opacity="0.5" d="M634.446 497.579H630.156V517.051H634.446V497.579Z" fill="white"/>
<path opacity="0.5" d="M634.446 535.114H630.156V554.582H634.446V535.114Z" fill="white"/>
<path d="M801.854 190.078H668.024V572.225H801.854V190.078Z" fill="#E6E6E6"/>
<path d="M752.306 190.078H618.472V572.225H752.306V190.078V190.078Z" fill="#E6E6E6"/>
<path opacity="0.7" d="M801.857 195.562H752.32V572.225H801.857V195.562V195.562Z" fill="white"/>
<path d="M801.854 216.021H764.567V235.492H801.854V216.021Z" fill="#E6E6E6"/>
<path d="M801.855 248.054H764.568V267.526H801.855V248.054Z" fill="#E6E6E6"/>
<path d="M801.855 280.1H764.568V299.572H801.855V280.1Z" fill="#E6E6E6"/>
<path d="M801.855 316.884H764.568V336.356H801.855V316.884Z" fill="#E6E6E6"/>
<path d="M801.855 350.942H764.568V370.414H801.855V350.942Z" fill="#E6E6E6"/>
<path d="M801.855 385H764.568V404.471H801.855V385Z" fill="#E6E6E6"/>
<path d="M801.855 422.514H764.568V441.982H801.855V422.514Z" fill="#E6E6E6"/>
<path d="M801.855 460.049H764.568V479.521H801.855V460.049Z" fill="#E6E6E6"/>
<path d="M801.855 497.579H764.568V517.051H801.855V497.579Z" fill="#E6E6E6"/>
<path d="M801.855 535.114H764.568V554.582H801.855V535.114Z" fill="#E6E6E6"/>
<path opacity="0.3" d="M801.854 216.021H764.567V235.492H801.854V216.021Z" fill="white"/>
<path opacity="0.3" d="M801.854 248.054H764.567V267.526H801.854V248.054Z" fill="white"/>
<path opacity="0.3" d="M801.854 280.1H764.567V299.572H801.854V280.1Z" fill="white"/>
<path opacity="0.3" d="M801.854 316.884H764.567V336.356H801.854V316.884Z" fill="white"/>
<path opacity="0.3" d="M801.854 350.942H764.567V370.414H801.854V350.942Z" fill="white"/>
<path opacity="0.3" d="M801.854 385H764.567V404.471H801.854V385Z" fill="white"/>
<path opacity="0.3" d="M801.854 422.514H764.567V441.982H801.854V422.514Z" fill="white"/>
<path opacity="0.3" d="M801.854 460.049H764.567V479.521H801.854V460.049Z" fill="white"/>
<path opacity="0.3" d="M801.854 497.579H764.567V517.051H801.854V497.579Z" fill="white"/>
<path opacity="0.3" d="M801.854 535.114H764.567V554.582H801.854V535.114Z" fill="white"/>
<path opacity="0.4" d="M752.306 190.078H618.472V572.225H752.306V190.078V190.078Z" fill="white"/>
<path d="M740.639 216.021H630.156V235.492H740.639V216.021Z" fill="#E6E6E6"/>
<path opacity="0.2" d="M740.64 216.021H634.447V235.492H740.64V216.021Z" fill="white"/>
<path d="M740.639 248.781H630.156V268.253H740.639V248.781Z" fill="#E6E6E6"/>
<path opacity="0.2" d="M740.64 248.781H634.447V268.253H740.64V248.781Z" fill="white"/>
<path d="M740.639 282.838H630.156V302.31H740.639V282.838Z" fill="#E6E6E6"/>
<path opacity="0.2" d="M740.64 282.838H634.447V302.31H740.64V282.838Z" fill="white"/>
<path d="M740.639 316.9H630.156V336.372H740.639V316.9Z" fill="#E6E6E6"/>
<path opacity="0.2" d="M740.64 316.9H634.447V336.372H740.64V316.9Z" fill="white"/>
<path d="M740.639 350.942H630.156V370.414H740.639V350.942Z" fill="#E6E6E6"/>
<path opacity="0.2" d="M740.64 350.942H634.447V370.414H740.64V350.942Z" fill="white"/>
<path d="M740.639 385H630.156V404.471H740.639V385Z" fill="#E6E6E6"/>
<path opacity="0.2" d="M740.64 385H634.447V404.471H740.64V385Z" fill="white"/>
<path d="M740.639 422.534H630.156V442.002H740.639V422.534Z" fill="#E6E6E6"/>
<path opacity="0.2" d="M740.64 422.534H634.447V442.002H740.64V422.534Z" fill="white"/>
<path d="M740.639 460.064H630.156V479.532H740.639V460.064V460.064Z" fill="#E6E6E6"/>
<path opacity="0.2" d="M740.64 460.064H634.447V479.532H740.64V460.064V460.064Z" fill="white"/>
<path d="M740.639 497.579H630.156V517.051H740.639V497.579Z" fill="#E6E6E6"/>
<path opacity="0.2" d="M740.64 497.579H634.447V517.051H740.64V497.579Z" fill="white"/>
<path d="M740.639 535.114H630.156V554.582H740.639V535.114Z" fill="#E6E6E6"/>
<path opacity="0.2" d="M740.64 535.114H634.447V554.582H740.64V535.114Z" fill="white"/>
<path d="M798.995 178.726H752.32V186.222H798.995V178.726Z" fill="#E6E6E6"/>
<path d="M798.995 176.897H618.472V186.222H798.995V176.897V176.897Z" fill="#F0F0F0"/>
<path d="M805.335 186.238H614.698V195.563H805.335V186.238Z" fill="#E6E6E6"/>
<path d="M805.335 169.405H614.698V178.73H805.335V169.405Z" fill="#E6E6E6"/>
<path opacity="0.05" d="M805.335 186.238H614.698V195.563H805.335V186.238Z" fill="black"/>
<path opacity="0.05" d="M805.335 169.405H614.698V178.73H805.335V169.405Z" fill="black"/>
<path opacity="0.2" d="M618.473 348.727H504.509V351.505H618.473V348.727ZM618.473 408.93H504.509V411.709H618.473V408.93ZM618.473 469.645H504.509V472.423H618.473V469.645Z" fill="white"/>
<path opacity="0.2" d="M393.527 218.911H361.628V224.671H393.527V218.911ZM393.527 207.374H361.628V213.134H393.527V207.374ZM805.334 186.238H752.32V195.563H805.334V186.238ZM805.334 169.405H752.32V178.73H805.334V169.405Z" fill="black"/>
<path opacity="0.4" d="M159.111 441.491H83.3496V572.225H204.253V441.491V383.519L159.111 441.491V441.491Z" fill="white"/>
<path d="M112.302 468H94.3145V487.763H112.302V468Z" fill="#E6E6E6"/>
<path d="M148.909 468H130.922V487.763H148.909V468Z" fill="#E6E6E6"/>
<path d="M185.516 468H167.529V487.763H185.516V468Z" fill="#E6E6E6"/>
<path d="M112.302 501.255H94.3145V521.019H112.302V501.255Z" fill="#E6E6E6"/>
<path d="M148.909 501.255H130.922V521.019H148.909V501.255Z" fill="#E6E6E6"/>
<path d="M185.516 501.255H167.529V521.019H185.516V501.255Z" fill="#E6E6E6"/>
<path d="M112.302 534.507H94.3145V554.27H112.302V534.507Z" fill="#E6E6E6"/>
<path d="M148.909 534.507H130.922V554.27H148.909V534.507Z" fill="#E6E6E6"/>
<path d="M185.516 534.507H167.529V554.27H185.516V534.507Z" fill="#E6E6E6"/>
<path opacity="0.2" d="M114.3 468H96.3125V487.763H114.3V468Z" fill="white"/>
<path opacity="0.2" d="M150.889 468H132.902V487.763H150.889V468Z" fill="white"/>
<path opacity="0.2" d="M187.496 468H169.509V487.763H187.496V468Z" fill="white"/>
<path opacity="0.2" d="M114.3 501.255H96.3125V521.019H114.3V501.255Z" fill="white"/>
<path opacity="0.2" d="M150.889 501.255H132.902V521.019H150.889V501.255Z" fill="white"/>
<path opacity="0.2" d="M187.496 501.255H169.509V521.019H187.496V501.255Z" fill="white"/>
<path opacity="0.2" d="M114.3 534.507H96.3125V554.27H114.3V534.507Z" fill="white"/>
<path opacity="0.2" d="M150.889 534.507H132.902V554.27H150.889V534.507Z" fill="white"/>
<path opacity="0.2" d="M187.496 534.507H169.509V554.27H187.496V534.507Z" fill="white"/>
<path d="M79.1441 451.241C79.1441 451.241 111.639 534.714 58.6232 534.769C5.60763 534.825 39.9221 448.455 39.9221 448.455C39.9221 448.455 27.6551 442.224 41.8235 395.611C55.992 348.999 62.3601 349 68.258 349C75.7151 349 82.6852 369.142 77.6164 400.111C77.6164 400.111 96.2851 438.721 79.1441 451.241Z" fill="#94C52D"/>
<path d="M53.9746 585L58.9627 471.696L64.1947 585H53.9746V585Z" fill="#37474F"/>
<path d="M56.9492 519.207L76.1539 495.722L61.0923 522.293L56.9492 519.207Z" fill="#37474F"/>
<path d="M409.001 649C183.115 649 0 620.346 0 585C0 549.654 183.115 521 409.001 521C634.886 521 818 549.654 818 585C818 620.346 634.885 649 409.001 649Z" fill="#EAEAEA"/>
<path d="M262.103 394.863L262.944 391.677C262.944 391.677 252.211 379.029 249.128 377.476C246.045 375.923 227.199 379.818 226.14 381.652C225.08 383.487 225.519 391.463 225.775 392.869C226.031 394.274 242.83 397.433 245.657 397.566C248.483 397.7 262.103 394.863 262.103 394.863Z" fill="#004C8B"/>
<path d="M262.941 391.68L262.101 394.864L269.508 401.142C269.775 401.491 269.337 403.178 269.337 403.178H276.573V391.68C275.5 392.344 274.364 392.878 273.186 393.272C272.151 393.473 262.941 391.68 262.941 391.68V391.68Z" fill="#004C8B"/>
<g opacity="0.1">
<path opacity="0.1" d="M262.103 394.863L262.944 391.677C262.944 391.677 252.211 379.029 249.128 377.476C246.045 375.923 227.199 379.818 226.14 381.652C225.08 383.487 225.519 391.463 225.775 392.869C226.031 394.274 242.83 397.433 245.657 397.566C248.483 397.7 262.103 394.863 262.103 394.863Z" fill="black"/>
<path opacity="0.1" d="M262.942 391.678L262.102 394.862L269.509 401.14C269.777 401.489 269.338 403.176 269.338 403.176H276.575V391.678C275.502 392.342 274.367 392.876 273.189 393.27C272.153 393.471 262.942 391.678 262.942 391.678V391.678Z" fill="black"/>
</g>
<path d="M389.47 523.067C390.304 556.337 402.367 597.015 429.275 597.015C431.919 597.015 467.927 597.767 470.281 596.914C491.962 589.044 504.806 545.806 502.372 507.689C500.467 478.006 491.789 444.75 469.17 440.758C467.661 440.497 429.777 440.758 428.163 440.758C400.978 440.758 388.558 487.337 389.47 523.067Z" fill="#263238"/>
<path d="M432.809 523.173C433.658 556.534 445.751 597.321 472.706 597.321C499.662 597.321 512.007 550.123 509.289 507.754C507.261 476.005 497.9 440.642 471.567 440.642C444.358 440.642 431.907 487.347 432.809 523.173Z" fill="#37474F"/>
<path d="M443.992 521.453C444.687 547.245 453.781 578.889 473.881 578.889C493.98 578.889 503.073 542.33 500.973 509.519C499.396 484.922 492.349 457.539 472.717 457.539C452.431 457.584 443.231 493.735 443.992 521.453Z" fill="#EAEAEA"/>
<path d="M479.019 463.821C478.61 474.253 477.184 507.464 475.124 507.464C473.381 507.464 468.297 476.109 466.501 464.778C468.664 463.53 471.07 462.878 473.513 462.877C475.382 462.868 477.241 463.187 479.019 463.821V463.821ZM471.397 509.497C470.302 510.397 460.581 495.424 453.516 484.193C455.001 479.499 457.149 475.093 459.881 471.135C464.464 483.975 472.89 508.279 471.397 509.497Z" fill="#263238"/>
<path d="M469.565 513.354C469.064 514.717 458.617 509.466 449.202 504.416C449.674 500.231 450.385 496.083 451.328 491.996C459.951 500.774 470.173 511.7 469.565 513.354Z" fill="#263238"/>
<path d="M468.636 518.041C468.729 519.609 458.151 521.814 448.55 523.497L448.471 521.654C448.379 518.317 448.471 514.864 448.642 511.352C458.204 513.528 468.465 516.286 468.636 518.041V518.041ZM451.472 545.233C450.362 540.571 449.55 535.829 449.042 531.042C458.287 526.341 469.011 521.278 469.815 522.903C470.62 524.528 459.528 536.701 451.472 545.233ZM462.908 569.101C459.164 565.064 456.263 560.183 454.403 554.794C460.319 543.695 470.447 525.295 472.019 526.471C473.59 527.647 465.482 559.335 462.908 569.101ZM483.627 571.189C481.085 573.293 477.989 574.433 474.806 574.439C473.578 574.447 472.355 574.296 471.161 573.989C471.478 565.284 472.931 529.14 475.123 529.14C476.8 529.112 481.751 559.365 483.627 571.189ZM495.048 550.095C493.836 554.91 492.027 559.519 489.673 563.792C485.078 550.865 477.682 529.332 479.108 528.171C480.113 527.344 488.327 539.619 495.048 550.095ZM498.244 531.045C497.937 534.858 497.443 538.651 496.765 542.406C489.238 534.6 481.498 526.07 482.053 524.56C482.476 523.312 490.241 526.954 498.244 531.045V531.045ZM498.616 514.226V524.789C490.693 522.946 483.205 520.815 483.112 519.291C483.02 517.768 490.614 515.953 498.616 514.226Z" fill="#263238"/>
<path d="M498.207 507.536C490.481 511.571 482.743 515.154 482.068 513.747C481.394 512.34 489.411 502.632 496.503 494.492C497.291 498.802 497.86 503.157 498.207 507.536Z" fill="#263238"/>
<path d="M494.28 485.034C488.562 495.887 480.533 510.483 479.133 509.424C477.732 508.365 484.032 481.088 486.819 469.668C490.247 474.168 492.787 479.401 494.28 485.034V485.034Z" fill="#263238"/>
<path d="M115.107 516.469C115.874 547.255 126.985 584.895 151.764 584.895C154.201 584.895 187.362 585.59 189.53 584.801C209.497 577.518 221.326 537.51 219.085 502.24C217.331 474.774 209.339 444.002 188.507 440.307C187.118 440.066 152.227 440.307 150.741 440.307C125.706 440.307 114.278 483.408 115.107 516.469V516.469Z" fill="#263238"/>
<path d="M154.873 516.467C155.641 547.253 166.751 584.893 191.518 584.893C216.284 584.893 227.627 541.338 225.143 502.238C223.266 472.939 214.666 440.306 190.483 440.306C165.472 440.306 154.033 483.406 154.873 516.467V516.467Z" fill="#37474F"/>
<path d="M165.177 515.532C165.81 539.196 174.095 568.23 192.405 568.23C210.716 568.23 218.999 534.686 217.087 504.583C215.65 482.015 209.23 456.891 191.346 456.891C172.865 456.932 164.494 490.1 165.177 515.532Z" fill="#EAEAEA"/>
<path d="M197.206 461.991C196.829 471.614 195.513 502.253 193.552 502.253C191.943 502.253 187.253 473.328 185.597 462.874C187.592 461.723 189.812 461.121 192.066 461.12C193.811 461.104 195.547 461.398 197.206 461.991V461.991ZM190.174 504.128C189.162 504.958 180.196 491.145 173.678 480.785C175.052 476.458 177.034 472.393 179.55 468.739C183.778 480.583 191.587 503.004 190.174 504.128V504.128Z" fill="#263238"/>
<path d="M188.484 507.686C188.021 508.944 178.384 504.099 169.698 499.44C170.134 495.58 170.79 491.753 171.659 487.982C179.614 496.081 189.044 506.16 188.484 507.686Z" fill="#263238"/>
<path d="M187.581 512.009C187.666 513.456 177.907 515.49 169.051 517.043C169.051 516.467 169.051 515.919 168.991 515.343C168.893 512.264 168.991 509.078 169.136 505.839C178.005 507.847 187.472 510.39 187.581 512.009V512.009ZM171.806 537.095C170.781 532.794 170.032 528.419 169.564 524.003C178.092 519.667 187.985 514.995 188.727 516.495C189.469 517.994 179.224 529.224 171.806 537.095V537.095ZM182.345 559.113C178.906 555.383 176.242 550.881 174.537 545.915C179.995 535.675 189.338 518.702 190.788 519.786C192.238 520.871 184.722 550.104 182.345 559.113ZM201.459 561.039C199.113 562.981 196.258 564.033 193.321 564.037C192.189 564.045 191.061 563.906 189.959 563.623C190.251 555.592 191.592 522.249 193.613 522.249C195.161 522.223 199.73 550.131 201.459 561.039ZM212.009 541.58C210.891 546.021 209.222 550.273 207.051 554.216C202.811 542.29 195.989 522.425 197.304 521.355C198.219 520.591 205.796 531.915 212.009 541.58ZM214.945 524.006C214.661 527.524 214.206 531.022 213.58 534.487C206.636 527.285 199.51 519.416 200.009 518.023C200.399 516.872 207.562 520.232 214.945 524.006V524.006ZM215.286 508.49V518.235C207.977 516.535 201.069 514.568 200.984 513.163C200.899 511.757 207.903 510.083 215.286 508.49Z" fill="#263238"/>
<path d="M214.909 502.318C207.781 506.04 200.643 509.346 200.021 508.048C199.398 506.75 206.794 497.795 213.337 490.285C214.064 494.261 214.589 498.278 214.909 502.318Z" fill="#263238"/>
<path d="M211.288 481.56C206.011 491.572 198.604 505.037 197.314 504.06C196.024 503.083 201.834 477.92 204.404 467.385C207.566 471.536 209.91 476.363 211.288 481.56V481.56ZM650.791 516.469C651.559 547.255 662.669 584.895 687.448 584.895C689.885 584.895 723.046 585.59 725.214 584.801C745.181 577.518 757.012 537.51 754.769 502.24C753.015 474.774 745.023 444.002 724.191 440.307C722.803 440.066 687.911 440.307 686.425 440.307C661.39 440.307 649.962 483.408 650.791 516.469V516.469Z" fill="#263238"/>
<path d="M690.551 516.467C691.318 547.253 702.429 584.893 727.197 584.893C751.965 584.893 763.306 541.338 760.82 502.238C758.944 472.939 750.343 440.306 726.161 440.306C701.15 440.306 689.711 483.406 690.551 516.467V516.467Z" fill="#37474F"/>
<path d="M700.824 515.532C701.457 539.196 709.742 568.23 728.052 568.23C746.363 568.23 754.646 534.686 752.734 504.583C751.297 482.015 744.877 456.891 726.993 456.891C708.548 456.932 700.178 490.1 700.824 515.532Z" fill="#EAEAEA"/>
<path d="M732.885 461.991C732.507 471.614 731.192 502.253 729.23 502.253C727.622 502.253 722.932 473.328 721.275 462.874C723.275 461.722 725.499 461.12 727.757 461.12C729.497 461.105 731.229 461.4 732.885 461.991V461.991ZM725.859 504.128C724.849 504.958 715.883 491.145 709.365 480.784C710.744 476.46 712.725 472.396 715.237 468.739C719.465 480.583 727.237 503.004 725.859 504.128ZM724.162 507.686C723.712 508.944 714.063 504.099 705.376 499.44C705.814 495.58 706.468 491.753 707.338 487.982C715.293 496.081 724.723 506.16 724.162 507.686ZM723.267 512.01C723.353 513.457 713.594 515.49 704.738 517.043C704.738 516.467 704.738 515.919 704.676 515.343C704.58 512.265 704.676 509.079 704.823 505.839C713.692 507.847 723.157 510.391 723.267 512.01V512.01ZM707.485 537.095C706.461 532.794 705.712 528.419 705.244 524.003C713.772 519.667 723.663 514.996 724.407 516.495C725.151 517.994 714.904 529.224 707.485 537.095ZM718.026 559.113C714.574 555.389 711.897 550.886 710.182 545.915C715.64 535.676 724.983 518.702 726.433 519.787C727.882 520.871 720.403 550.104 718.026 559.113ZM737.138 561.039C734.792 562.981 731.937 564.033 729 564.038C727.868 564.045 726.739 563.906 725.637 563.623C725.929 555.593 727.27 522.249 729.293 522.249C730.839 522.223 735.408 550.132 737.138 561.039ZM747.692 541.581C746.573 546.022 744.905 550.274 742.733 554.216C738.494 542.29 731.671 522.426 732.987 521.355C733.912 520.592 741.479 531.916 747.692 541.581ZM750.623 524.006C750.346 527.525 749.891 531.024 749.259 534.487C742.315 527.286 735.189 519.417 735.688 518.023C736.078 516.873 743.242 520.232 750.623 524.006V524.006ZM750.966 508.491V518.235C743.655 516.535 736.749 514.569 736.664 513.163C736.578 511.758 743.583 510.083 750.966 508.491Z" fill="#263238"/>
<path d="M750.591 502.319C743.464 506.041 736.325 509.346 735.703 508.048C735.081 506.75 742.477 497.795 749.02 490.285C749.747 494.261 750.271 498.279 750.591 502.319Z" fill="#263238"/>
<path d="M746.969 481.56C741.694 491.572 734.287 505.037 732.995 504.06C731.703 503.084 737.515 477.92 740.086 467.385C743.248 471.536 745.591 476.364 746.969 481.56V481.56Z" fill="#263238"/>
<path d="M505.975 562.259H673.011C673.011 562.259 688.275 534.952 689.141 530.63C690.006 526.307 686.228 439.356 727.113 439.356C762.736 439.356 761.152 526.654 761.152 526.654L765.513 519.32L766.5 506.563L763.722 499.014C763.722 499.014 768.949 445.473 766.5 438.098C764.05 430.724 742.293 399.83 740.819 398.21C739.344 396.589 715.308 392.093 713.677 390.486C712.045 388.88 644.783 327.951 614.899 320.763C585.016 313.574 519.656 307.833 477.711 307.833C435.767 307.833 339.816 320.282 331.97 323.159C324.124 326.036 252.163 400.299 252.163 400.299L165.155 413.683C154.897 416.226 115.765 444.777 114.134 448.364C112.502 451.951 107.422 492.027 107.422 492.027C107.422 492.027 103.499 501.919 103.341 504.248C103.183 506.576 108.08 544.683 108.737 546.651C109.394 548.619 116.583 557.614 118.215 558.337C119.846 559.061 392.225 563.009 395.564 562.353C398.902 561.697 414.606 556.611 417.224 554.683C419.843 552.755 424.887 440.306 471.791 440.306C512.518 440.306 509.252 526.146 505.975 562.259V562.259Z" fill="#004C8B"/>
<path opacity="0.1" d="M278.086 561.121L118.214 558.31C116.581 557.586 109.381 548.605 108.737 546.637C108.092 544.67 103.17 506.563 103.352 504.234C103.533 501.905 107.421 491.999 107.421 491.999C107.421 491.999 112.489 451.925 114.122 448.338C115.755 444.751 154.848 416.213 165.154 413.669C175.461 411.125 252.163 400.285 252.163 400.285C252.163 400.285 182.722 417.351 179.067 420.764C175.411 424.177 148.611 456.369 145.492 461.147C142.373 465.926 141.91 502.105 140.923 505.091C139.936 508.077 133.395 526.788 132.736 530.014C132.078 533.24 135.028 546.196 136.002 547.253C136.976 548.31 271.776 560.559 278.087 561.121H278.086ZM505.96 562.258C508.958 529.476 511.906 455.725 481.949 442.406C497.25 445.458 518.618 473.018 519.495 545.017L672.997 562.258H505.96Z" fill="black"/>
<path opacity="0.36" d="M669.074 515.718C670.444 498.305 673.842 481.157 679.185 464.694C680.547 460.585 682.117 456.563 683.888 452.647C685.654 448.704 687.69 444.914 689.979 441.31C692.24 437.656 694.877 434.301 697.836 431.311C699.316 429.807 700.887 428.416 702.54 427.148C704.227 425.919 706.003 424.845 707.851 423.936C711.547 422.073 715.543 421.036 719.607 420.884C723.67 420.601 727.741 421.277 731.547 422.865C739.197 426.117 745.02 432.957 749.138 440.413C753.179 447.982 756.264 456.118 758.311 464.6C760.408 473.02 761.843 481.623 762.6 490.313C761.602 481.674 759.936 473.142 757.618 464.814C755.455 456.47 752.28 448.482 748.175 441.069C743.973 433.882 738.344 427.189 731.035 424.217C727.405 422.72 723.524 422.099 719.656 422.397C715.769 422.57 711.953 423.586 708.424 425.381C706.651 426.247 704.944 427.268 703.32 428.434C701.719 429.661 700.193 431.003 698.751 432.449C695.858 435.35 693.279 438.605 691.063 442.154C686.626 449.314 682.99 457.034 680.233 465.149C677.416 473.282 675.112 481.618 673.338 490.099C671.474 498.542 670.05 507.096 669.074 515.718V515.718ZM415.749 515.718C417.09 498.7 420.364 481.93 425.495 465.805C428.058 457.706 431.486 449.969 435.704 442.756C437.879 439.164 440.351 435.799 443.087 432.704C445.893 429.651 449.065 427.035 452.517 424.927C456.053 422.947 459.866 421.63 463.798 421.031C467.735 420.543 471.719 420.796 475.578 421.781C483.339 423.789 490.014 429.263 494.899 435.942C499.715 442.702 503.537 450.249 506.229 458.309C508.956 466.299 510.951 474.567 512.186 482.992C510.717 474.64 508.494 466.47 505.547 458.604C502.765 450.699 498.877 443.319 494.023 436.733C489.149 430.334 482.705 425.074 475.262 423.214C471.557 422.299 467.739 422.08 463.968 422.57C460.216 423.177 456.578 424.452 453.199 426.346C449.868 428.372 446.799 430.879 444.074 433.801C441.388 436.805 438.963 440.077 436.825 443.572C432.647 450.683 429.202 458.284 426.555 466.233C423.857 474.195 421.635 482.341 419.904 490.621C418.087 498.893 416.7 507.272 415.749 515.718V515.718ZM508.263 452.244L540.243 442.071L599.937 435.821L659.632 429.999H659.559L679.051 422.583L698.64 415.288L679.149 423.011L659.657 430.627H659.583L599.888 436.837L540.194 442.647L508.263 452.244ZM260.677 400.339L228.272 415.531L195.817 430.616L195.975 430.469L183.061 457.118L182.745 456.542L276.551 457.439H276.331L313.611 433.346L360.074 418.154L406.575 403.136L360.319 418.743L313.914 434.123H313.999L276.867 458.35L276.758 458.416H276.636L182.83 457.333H182.233L182.513 456.771L195.549 430.174V430.066H195.646L228.137 415.142L260.677 400.339V400.339Z" fill="white"/>
<g opacity="0.3">
<path opacity="0.3" d="M258.265 400.299L192.87 417.379L184.708 419.574L180.663 420.738L179.725 421.087C179.568 421.131 179.417 421.194 179.273 421.274L178.921 421.607C178.421 422.098 177.952 422.626 177.519 423.188C173.864 427.792 170.538 432.758 167.116 437.616L147.002 467.212L166.494 437.122C169.832 432.169 173.171 427.243 176.849 422.532C177.308 421.907 177.818 421.33 178.372 420.806L178.823 420.403C178.991 420.311 179.166 420.234 179.346 420.176L180.395 419.775L184.463 418.569L192.626 416.32L225.384 408.062L258.265 400.299V400.299ZM469.265 403.176L449.371 410.07L429.44 416.843L389.653 430.589L369.807 437.616C366.549 438.894 363.395 440.47 360.377 442.327L351.07 447.507L332.479 457.882L313.815 468.107L332.259 457.399L350.789 446.851L360.049 441.592C363.079 439.683 366.254 438.066 369.539 436.759C376.117 434.229 382.732 431.887 389.359 429.558L429.246 416.173L449.226 409.588L469.265 403.176V403.176ZM519.498 539.399L538.697 538.945L557.91 538.65L596.309 538.008L634.721 537.607L653.92 537.286L658.72 537.192L661.157 537.098C661.534 537.098 661.986 537.098 662.302 537.005C662.618 536.911 662.911 536.548 663.203 536.281C665.323 533.671 667.212 530.807 669.112 527.982L663.374 536.455C663.082 536.736 662.875 537.204 662.411 537.286C662.008 537.359 661.601 537.404 661.193 537.419L658.756 537.579L653.957 537.806L634.757 538.329L596.345 539.078L557.933 539.359L538.734 539.481L519.498 539.399ZM654.138 398.05L660.059 430.176V430.322L656.222 455.754L652.287 481.185L643.99 532.049L651.398 481.026L655.309 455.593L659.328 430.162V430.295L654.138 398.05ZM548.174 400.178L540.73 442.449V442.367L540.084 488.426L539.633 511.515L539.012 534.538V511.503L539.195 488.466L539.852 442.407V442.314L548.174 400.178V400.178ZM691.795 387.49L695.669 401.262L699.177 415.156V415.277V415.385L697.094 425.543L694.816 435.649L696.437 425.383L698.264 415.184V415.425L694.84 401.517L691.795 387.49V387.49Z" fill="black"/>
<path opacity="0.3" d="M516 482.99L535.833 481.33L555.667 479.844L595.346 476.874L635.037 474.262L654.893 472.951L674.751 471.828L654.918 473.487L635.086 474.972L595.406 477.944L555.715 480.568L535.869 481.866L516 482.99V482.99ZM629.116 404.439L630.188 409.792L629.92 409.565L639.227 408.454L648.548 407.543L648.145 408.147L647.207 403.221L647.633 403.556L637.303 404.09L647.572 402.685H647.913L647.987 403.073L649.021 407.972L649.143 408.522H648.62L639.301 409.417L629.956 410.101H629.724V409.86L629.116 404.439V404.439ZM124.584 477.411C123.366 484.493 121.831 491.479 120.333 498.466L119.723 501.144L119.576 501.786L119.503 502.107C119.503 502.268 119.503 502.107 119.382 502.107C119.382 502.495 119.442 503.004 119.467 503.446L119.845 508.907C120.064 512.561 120.258 516.216 120.333 519.816C119.845 516.255 119.48 512.735 119.115 509.228C118.932 507.488 118.81 505.707 118.665 503.955L118.556 502.615C118.511 502.386 118.511 502.149 118.556 501.919L118.628 501.598L118.762 500.929L119.323 498.253C121.005 491.251 122.625 484.278 124.585 477.411H124.584ZM368.603 477.411L372.258 488.213L375.571 499.148V499.242V499.31L375.437 507.515L375.109 515.719L374.767 507.515L374.646 499.31V499.471L371.418 488.508L368.603 477.411V477.411ZM103.424 505.842L121.905 526.028H121.807L187.934 528.397L220.974 529.589L254.038 529.507L386.304 529.856L413.167 522.708L386.364 530.217L254.087 530.565L221.022 530.498L187.971 529.16L121.893 526.309H121.82L103.424 505.842V505.842Z" fill="black"/>
</g>
<path d="M565.071 397.437C567.252 399.886 653.384 394.318 655.344 394.076C657.304 393.835 690.235 386.889 691.758 385.216C693.28 383.544 639.374 340.898 634.841 338.729C630.309 336.56 580.385 332.987 573.514 336.053C568.141 338.435 562.561 394.612 565.071 397.437Z" fill="#263238"/>
<path d="M570.666 394.837C572.664 397.073 651.351 391.986 653.142 391.772C654.933 391.559 685.023 385.199 686.412 383.74C687.8 382.281 638.608 343.237 634.416 341.269C630.225 339.302 584.663 336.01 578.376 338.807C573.479 340.922 568.374 392.255 570.666 394.837Z" fill="#37474F"/>
<path opacity="0.1" d="M625.288 339.661L570.759 376.497C571.697 365.682 573.451 352.685 575.437 345.082L586.328 337.733C599.337 337.595 612.343 338.239 625.288 339.661V339.661ZM667.999 367.06L629.198 393.281L606.513 394.485L658.472 359.376L667.999 367.06V367.06ZM683.948 380.714L674.421 387.152L667.392 388.784L682.012 378.92L683.948 380.714V380.714Z" fill="white"/>
<path d="M630.699 340.358C632.234 340.627 650.045 391.128 649.704 392.119C649.363 393.11 653.225 392.293 652.896 392.039C652.567 391.786 633.404 343.075 633.963 341.028C634.257 339.943 630.699 340.358 630.699 340.358V340.358ZM258.267 400.299L469.27 403.176C474.594 403.176 548.006 399.28 548.908 398.746C549.81 398.211 556.997 339.636 554.816 334.857C554.219 333.519 455.601 327.951 443.504 327.951C431.406 327.951 332.191 332.702 326.953 333.707C321.714 334.711 254.66 400.245 258.267 400.299V400.299Z" fill="#263238"/>
<path d="M264.602 397.476L462.874 400.153C467.868 400.153 538.905 396.499 539.745 395.99C540.585 395.482 545.386 343.681 543.327 339.196C542.767 337.965 448.06 332.704 436.694 332.704C425.327 332.704 332.093 337.162 327.171 338.059C322.248 338.956 261.214 397.436 264.602 397.476Z" fill="#37474F"/>
<path opacity="0.1" d="M409.255 333.695L313.853 398.158L272.871 397.595L364.24 335.836L409.255 333.695ZM470.813 334.217L374.912 399.082L395.403 399.363L490.136 335.355L470.813 334.217V334.217ZM508.579 397.984L531.435 396.646L540.62 390.434L542.106 375.31L508.579 397.984V397.984ZM519.032 337.068L426.323 399.71H430.843L523.224 337.295L519.032 337.068ZM344.748 336.881L279.681 380.838L270.398 390.207L349.791 336.573L344.748 336.881Z" fill="white"/>
<path d="M338.732 458.763C335.882 461.881 340.913 481.277 345.274 482.722C349.635 484.168 379.507 479.604 382.773 478.64C386.039 477.675 419.624 466.66 422.464 463.314C425.303 459.969 427.909 432.407 424.899 430.493C421.889 428.579 371.467 442.941 366.021 444.628C360.576 446.315 341.133 456.127 338.732 458.763V458.763ZM111.673 468.681C112.891 471.171 121.005 480.42 122.638 481.692C124.271 482.964 134.089 484.77 135.234 484.06C136.379 483.351 142.545 468.426 142.423 465.91C142.302 463.394 129.351 436.115 127.024 436.663C124.696 437.212 112.308 445.645 111.649 448.336C110.991 451.027 110.419 466.004 111.673 468.681Z" fill="#EAEAEA"/>
<path d="M112.404 467.841C112.282 469.634 116.619 475.19 117.143 475.872C115.122 473.672 113.291 471.27 111.674 468.697C110.457 466.021 111.005 451.015 111.674 448.338C112.344 445.66 124.759 437.189 127.036 436.641C124.601 437.857 114.647 446.759 114.111 448.968C113.576 451.176 112.54 465.927 112.405 467.841H112.404Z" fill="#DBDBDB"/>
<path d="M147.003 467.21C149.878 466.112 208.988 464.158 220.598 464.158C232.207 464.158 308.58 466.125 313.819 468.105C319.058 470.085 307.277 504.246 302.696 506.736C298.115 509.226 224.52 515.717 219.453 515.717C214.385 515.717 156.931 506.802 153.496 504.286C150.061 501.77 142.264 469.002 147.003 467.21V467.21Z" fill="#263238"/>
<path d="M311.321 489.134L310.59 491.209L147.733 487.97L147.282 485.842L311.321 489.134Z" fill="#004C8B"/>
<path d="M154.849 544.977H308.752C312.017 544.977 295.351 534.028 292.707 533.84C290.063 533.653 169.407 533.84 166.958 533.84C164.509 533.84 152.071 544.977 154.849 544.977Z" fill="#263238"/>
<path d="M115.872 537.762C117.529 538.071 134.622 538.432 137.46 537.762C140.298 537.092 146.841 520.682 146.402 518.234C145.963 515.785 133.257 507.524 131.624 506.91C129.991 506.295 118.467 505.652 117.237 506.91C116.007 508.168 114.337 537.495 115.872 537.762V537.762ZM337.194 515.718C335.16 518.622 349.194 536.144 354.53 538.299C359.867 540.455 392.601 540.521 393.819 540.16C395.036 539.799 395.038 521.768 394.416 519.011C393.793 516.254 387.655 506.202 386.303 505.305C384.951 504.408 355.603 507.151 351.631 508.289C347.659 509.427 338.12 514.406 337.194 515.718V515.718Z" fill="#EAEAEA"/>
<path d="M578.134 391.867L577.281 388.681C577.281 388.681 588.025 376.032 591.096 374.479C594.166 372.926 613.024 376.821 614.096 378.655C615.169 380.489 614.717 388.466 614.461 389.872C614.206 391.277 597.406 394.437 594.568 394.571C591.73 394.704 578.134 391.867 578.134 391.867V391.867Z" fill="#004C8B"/>
<path d="M577.28 388.685L578.133 391.869L570.726 398.147C570.47 398.495 570.896 400.182 570.896 400.182H563.586V388.685C564.661 389.345 565.796 389.879 566.973 390.278C568.033 390.477 577.28 388.685 577.28 388.685V388.685Z" fill="#004C8B"/>
<path d="M115.341 489L107.541 515.092H123.776L115.341 489Z" fill="#D32F2F"/>
<path d="M123.776 515.092H107.541L99.4244 542.835H131.893L123.776 515.092Z" fill="#E0E0E0"/>
<path d="M131.893 542.835H99.4244L90.9902 569.244H140.01L131.893 542.835Z" fill="#D32F2F"/>
<path d="M140.01 569.244H90.9902L82.5561 596.288H148.127L140.01 569.244Z" fill="#E0E0E0"/>
<path d="M148.127 596.288H82.5561L79.8293 606.446H151.171L148.127 596.288Z" fill="#D32F2F"/>
<path d="M151.171 606.446H79.8293H70V618H161V606.446H151.171Z" fill="#C02C2C"/>
<path d="M500.31 480L490.967 511.149H510.413L500.31 480Z" fill="#D32F2F"/>
<path d="M510.413 511.149H490.967L481.245 544.268H520.135L510.413 511.149Z" fill="#E0E0E0"/>
<path d="M520.135 544.268H481.245L471.142 575.795H529.858L520.135 544.268Z" fill="#D32F2F"/>
<path d="M529.858 575.795H471.142L461.04 608.081H539.58L529.858 575.795Z" fill="#E0E0E0"/>
<path d="M539.58 608.081H461.04L457.774 620.207H543.226L539.58 608.081Z" fill="#D32F2F"/>
<path d="M543.226 620.207H457.774H446V634H555V620.207H543.226Z" fill="#C02C2C"/>
<path d="M493.974 315.998C493.974 315.998 515.253 315.998 516.662 315.998C518.07 315.998 519.479 314.037 518.623 312.628C517.768 311.219 496.495 274.158 496.128 273.521C495.761 272.885 495.002 272.028 493.962 272.028H493.99C492.95 272.028 492.192 272.885 491.824 273.521C491.457 274.157 470.184 311.219 469.329 312.628C468.474 314.036 469.882 315.998 471.291 315.998C472.699 315.998 493.978 315.998 493.978 315.998H493.974Z" fill="white" stroke="#D32F2F"/>
<path d="M518.773 313.616C518.153 312.648 495.648 273.401 495.385 272.965C495.121 272.529 494.733 272 494.003 272H493.996C493.267 272 492.879 272.529 492.615 272.965C492.351 273.401 469.847 312.648 469.227 313.616C468.607 314.583 469.364 316 470.226 316C471.087 316 493.992 316 493.992 316H494.008C494.008 316 516.913 316 517.774 316C518.636 316 519.393 314.583 518.773 313.616ZM475.817 311.614L494 280.015L512.184 311.614H475.817Z" fill="#D32F2F"/>
<path d="M471.108 315.089C471.936 315.089 493.951 315.089 493.951 315.089H493.966C493.966 315.089 515.981 315.089 516.809 315.089C517.637 315.089 518.365 313.731 517.769 312.805C517.173 311.878 495.543 274.279 495.29 273.862C495.036 273.444 494.663 272.937 493.962 272.937H493.955C493.254 272.937 492.882 273.444 492.628 273.862C492.374 274.279 470.744 311.878 470.148 312.805C469.552 313.731 470.28 315.089 471.108 315.089ZM511.435 310.887H476.481L493.958 280.615L511.435 310.887Z" fill="#D32F2F"/>
<path d="M487.63 293.387H491.035L494.552 301.214L497.555 293.387H500.733L495.642 304.844C495.087 306.085 494.521 307.03 493.945 307.678C493.369 308.326 492.625 308.65 491.713 308.65C490.815 308.65 490.112 308.591 489.605 308.475V306.212C490.037 306.24 490.428 306.253 490.777 306.253C491.484 306.253 491.989 306.125 492.294 305.868C492.6 305.61 492.893 305.057 493.174 304.207L487.63 293.387Z" fill="black"/>
</svg>
