<svg width="431" height="398" viewBox="0 0 431 398" fill="none" xmlns="http://www.w3.org/2000/svg">
<path d="M411.073 397.127H185.634C175.138 397.127 166.628 388.618 166.628 378.121V54.7473C166.628 44.2511 175.138 35.7416 185.634 35.7416H411.073C421.566 35.7416 430.076 44.2511 430.076 54.7473V378.121C430.076 388.618 421.566 397.127 411.073 397.127Z" fill="#A9BAE6"/>
<path d="M407.276 50.3059V365.288H190.438V50.3059H407.276Z" fill="#F6F5F5"/>
<path d="M407.276 50.3085C407.342 173.133 411.308 321.268 397.511 354.066C336.743 359.988 265.586 361.888 190.436 362.24L219.002 51.2571L407.276 50.3085Z" fill="#E4E4E4"/>
<path d="M387.8 344.14C293.081 359.3 229.774 360.1 178.431 356.288C185.087 285.459 187.754 167.797 190.436 50.3213L304.574 50.5745L407.874 57.3938C409.378 179.321 409.544 291.946 387.8 344.14Z" fill="white"/>
<path d="M353.923 99.4143L239.853 96.7295L240.263 79.3552L354.332 82.04L353.923 99.4143Z" fill="#708CD5"/>
<path d="M376.322 124.557L273.431 122.135L273.244 130.09L376.135 132.511L376.322 124.557Z" fill="#708CD5"/>
<path d="M342.959 141.123L273.024 139.476L272.835 147.428L342.772 149.075L342.959 141.123Z" fill="#D3DFFF"/>
<path d="M240.436 146.198L216.079 145.626L216.652 121.268L241.012 121.841L240.436 146.198Z" fill="white"/>
<path d="M240.436 146.198L240.457 145.431L216.864 144.876L217.401 122.053L240.227 122.59L239.672 146.18L240.436 146.198L240.457 145.431L240.436 146.198L241.203 146.216L241.797 121.092L215.905 120.483L215.294 146.375L241.186 146.983L241.203 146.216L240.436 146.198Z" fill="#708CD5"/>
<path d="M220.623 127.676C221.375 130.555 222.763 142.616 228.802 139.243C230.196 138.466 231.375 136.41 232.418 135.226C234.29 133.102 236.161 130.974 238.035 128.85C241.781 124.597 245.527 120.343 249.271 116.09C250.232 115.001 245.993 112.268 244.788 113.636C241.459 117.415 238.13 121.197 234.801 124.976C233.136 126.865 231.472 128.755 229.805 130.647C228.652 131.959 225.98 136.188 224.264 136.564C225.197 136.865 226.13 137.165 227.061 137.466C227.721 138.006 226.496 134.176 226.47 134.071C226.005 132.294 225.54 130.514 225.074 128.734C224.691 127.267 220.055 125.5 220.623 127.676Z" fill="#EE6F57"/>
<path d="M357.117 168.413L272.39 166.418L272.204 174.373L356.93 176.367L357.117 168.413Z" fill="#708CD5"/>
<path d="M374.872 186.181L271.981 183.759L271.794 191.714L374.685 194.135L374.872 186.181Z" fill="#D3DFFF"/>
<path d="M239.396 190.482L215.038 189.909L215.611 165.552L239.968 166.124L239.396 190.482Z" fill="white"/>
<path d="M239.396 190.482L239.414 189.715L215.823 189.16L216.36 166.337L239.184 166.874L238.629 190.464L239.396 190.482L239.414 189.715L239.396 190.482L240.163 190.5L240.753 165.375L214.862 164.767L214.254 190.658L240.145 191.267L240.163 190.5L239.396 190.482Z" fill="#708CD5"/>
<path d="M219.564 172.647C220.316 175.526 221.704 187.587 227.744 184.215C229.137 183.437 230.316 181.382 231.359 180.198C233.231 178.073 235.105 175.946 236.977 173.821C240.723 169.566 244.469 165.314 248.215 161.062C249.173 159.973 244.934 157.239 243.73 158.607C240.401 162.386 237.072 166.168 233.742 169.947C232.078 171.837 230.413 173.726 228.749 175.616C227.593 176.927 224.921 181.159 223.208 181.535C224.139 181.834 225.072 182.136 226.003 182.438C226.662 182.977 225.438 179.147 225.412 179.042C224.947 177.265 224.481 175.485 224.019 173.706C223.632 172.238 218.997 170.471 219.564 172.647Z" fill="#EE6F57"/>
<path d="M374.238 213.126L271.347 210.704L271.16 218.656L374.051 221.078L374.238 213.126Z" fill="#708CD5"/>
<path d="M316.952 229.127L270.938 228.043L270.751 235.998L316.766 237.079L316.952 229.127Z" fill="#D3DFFF"/>
<path d="M238.353 234.765L213.995 234.192L214.568 209.835L238.925 210.408L238.353 234.765Z" fill="white"/>
<path d="M238.352 234.765L238.37 234.001L214.78 233.443L215.317 210.62L238.14 211.157L237.585 234.747L238.352 234.765L238.37 234.001L238.352 234.765L239.12 234.783L239.71 209.659L213.819 209.05L213.21 234.942L239.102 235.55L239.12 234.783L238.352 234.765Z" fill="#708CD5"/>
<path d="M218.853 217.245C219.605 220.124 220.994 232.185 227.033 228.812C228.427 228.035 229.605 225.979 230.646 224.796C232.52 222.671 234.392 220.543 236.266 218.419C240.009 214.166 243.755 209.912 247.501 205.66C248.46 204.57 244.223 201.837 243.019 203.205C239.69 206.984 236.358 210.766 233.029 214.545C231.364 216.434 229.7 218.324 228.035 220.216C226.88 221.528 224.21 225.757 222.494 226.133C223.428 226.435 224.358 226.734 225.292 227.035C225.949 227.575 224.727 223.745 224.699 223.64C224.236 221.863 223.77 220.083 223.305 218.304C222.921 216.836 218.283 215.069 218.853 217.245Z" fill="#EE6F57"/>
<path d="M373.194 257.409L270.306 254.988L270.117 262.94L373.008 265.361L373.194 257.409Z" fill="#708CD5"/>
<path d="M351.177 274.241L269.897 272.326L269.711 280.281L350.99 282.193L351.177 274.241Z" fill="#D3DFFF"/>
<path d="M237.312 279.051L212.952 278.476L213.527 254.118L237.885 254.691L237.312 279.051Z" fill="white"/>
<path d="M237.312 279.051L237.33 278.284L213.737 277.726L214.277 254.903L237.1 255.44L236.545 279.033L237.312 279.051L237.33 278.284L237.312 279.051L238.079 279.069L238.67 253.942L212.778 253.333L212.167 279.225L238.061 279.836L238.079 279.069L237.312 279.051Z" fill="#708CD5"/>
<path d="M217.818 261.239C218.57 264.118 219.958 276.177 225.997 272.804C227.391 272.027 228.57 269.971 229.61 268.79C231.485 266.663 233.356 264.538 235.23 262.41C238.976 258.158 242.72 253.906 246.466 249.654C247.427 248.565 243.188 245.829 241.983 247.199C238.654 250.978 235.322 254.758 231.993 258.539C230.329 260.429 228.664 262.318 227 264.208C225.844 265.52 223.175 269.751 221.459 270.125C222.392 270.426 223.323 270.728 224.256 271.027C224.913 271.569 223.691 267.739 223.663 267.634C223.2 265.855 222.735 264.078 222.269 262.298C221.886 260.828 217.248 259.061 217.818 261.239Z" fill="#EE6F57"/>
<path d="M310.056 299.895L269.271 298.936L269.084 306.888L309.87 307.85L310.056 299.895Z" fill="#708CD5"/>
<path d="M371.752 318.699L268.862 316.277L268.675 324.229C308.484 325.162 359.167 327.029 369.51 325.441C371.08 323.656 371.926 321.465 371.752 318.699Z" fill="#D3DFFF"/>
<path d="M236.616 323.007L212.259 322.434L212.832 298.075L237.192 298.65L236.616 323.007Z" fill="white"/>
<path d="M236.616 323.007L236.634 322.24L213.044 321.685L213.581 298.859L236.407 299.396L235.849 322.989L236.616 323.007L236.634 322.24L236.616 323.007L237.383 323.025L237.977 297.901L212.085 297.289L211.474 323.181L237.365 323.792L237.383 323.025L236.616 323.007Z" fill="#708CD5"/>
<path d="M216.793 304.848C217.544 307.727 218.933 319.785 224.972 316.413C226.363 315.635 227.544 313.58 228.585 312.398C230.457 310.271 232.331 308.144 234.203 306.019C237.948 301.767 241.694 297.515 245.44 293.262C246.399 292.171 242.162 289.437 240.955 290.805C237.626 294.587 234.297 298.366 230.968 302.145C229.304 304.037 227.639 305.927 225.974 307.816C224.819 309.128 222.147 313.357 220.434 313.733C221.367 314.035 222.298 314.337 223.231 314.636C223.888 315.178 222.666 311.345 222.638 311.243C222.172 309.463 221.707 307.683 221.244 305.906C220.861 304.436 216.222 302.669 216.793 304.848Z" fill="#EE6F57"/>
<path d="M347.188 37.9305V62.2417H249.513V37.9305C249.513 34.0542 251.089 30.5461 253.625 27.9994C253.942 27.6823 254.269 27.3857 254.617 27.1096C257.041 25.0947 260.161 23.8878 263.556 23.8878C266.103 23.8878 268.547 23.3049 270.736 22.2514C271.687 21.7912 272.587 21.2491 273.436 20.6252C276.228 18.5592 278.366 15.6239 279.43 12.126C280.514 8.55651 282.733 5.57004 285.607 3.49382C288.368 1.50964 291.733 0.364132 295.303 0.364132H301.399C304.968 0.364132 308.333 1.50964 311.094 3.49382C313.968 5.57004 316.188 8.55651 317.272 12.126C318.336 15.6239 320.473 18.5592 323.265 20.6252C324.114 21.2491 325.014 21.7912 325.966 22.2514C328.154 23.3049 330.599 23.8878 333.145 23.8878C336.541 23.8878 339.66 25.0947 342.084 27.1096C345.204 29.6767 347.188 33.5735 347.188 37.9305Z" fill="#EE6F57"/>
<path d="M355.115 50.306V68.3783H241.587V50.306H249.514V62.2417H347.188V50.306H355.115Z" fill="#E4E4E4"/>
<path d="M307.016 14.936C307.016 19.4848 303.137 23.1719 298.353 23.1719C293.567 23.1719 289.688 19.4848 289.688 14.936C289.688 10.3898 293.567 6.70274 298.353 6.70274C303.137 6.70274 307.016 10.3898 307.016 14.936Z" fill="white"/>
<path d="M189.307 128.402C185.833 127.744 182.587 121.95 181.459 119.728C181.182 119.183 181.095 118.566 181.208 117.964L182.592 110.647C182.592 110.647 185.781 111.187 185.535 115.429C185.51 115.87 185.599 116.31 185.756 116.722L186.979 119.912L190.589 117.122L188.609 111.538C188.609 111.538 185.958 112.265 184.589 111.83C181.782 110.933 185.464 108.747 186.628 108.514C187.794 108.281 190.355 107.352 191.519 109.328C192.686 111.305 193.383 112.47 193.383 112.47C193.383 112.47 194.665 108.048 193.791 98.1628C193.752 97.7173 194.867 97.7276 195.18 98.0476C196.119 99 197.613 101.901 197.693 110.724C197.693 110.724 197.849 100.441 199.613 99.3841C201.069 98.511 201.805 103.545 200.78 112.078C200.78 112.078 202.679 104.689 204.041 104.676C206.335 104.653 204.069 124.411 198.3 130.299L189.307 128.402Z" fill="#F9B384"/>
<path d="M200.198 125.379C200.095 126.362 199.982 127.314 199.859 128.236V128.246C199.449 131.523 198.936 134.452 198.341 136.961C198.311 137.084 198.29 137.197 198.259 137.309C196.506 144.488 196.188 148.001 190.199 147.059L184.036 140.054L183.974 139.982L183.523 139.47L184.774 135.784L184.938 135.302L185.861 132.619L185.974 132.271L187.553 127.652L188.189 125.778L200.198 125.379Z" fill="#F9B384"/>
<path d="M85.6967 380.449L84.1274 385.347C73.3703 388.875 67.096 392.917 66.6938 397.636H97.8011L100.295 381.24C93.9944 382.776 88.9458 381.708 85.6967 380.449Z" fill="#1F3C88"/>
<path d="M89.597 368.277L85.6968 380.449C88.9459 381.709 93.9944 382.776 100.295 381.24L101.903 370.666L89.597 368.277Z" fill="#F9B384"/>
<path d="M142.779 379.906L143.692 367.509L129.079 368.277L128.281 379.706C134.468 381.675 139.582 380.905 142.779 379.906Z" fill="#F9B384"/>
<path d="M160.357 397.636C159.954 392.917 154.46 386.455 142.41 384.919L142.779 379.906C139.582 380.905 134.467 381.675 128.281 379.706L127.028 397.636H160.357Z" fill="#1F3C88"/>
<path d="M130.935 131.585L113.307 131.708V105.081H130.402L130.412 106.709L130.494 115.148L130.617 128.697L130.935 131.585Z" fill="#F9B384"/>
<path d="M130.494 116.428C127.326 119.756 119.06 115.998 115.573 112.331L130.412 107.989L130.494 116.428Z" fill="#E28B6D"/>
<path d="M134.585 98.9359C134.575 100.902 134.452 102.961 134.124 104.927C133.263 110.293 130.987 114.933 125.736 115.076C113.327 115.434 109.789 108.348 107.451 102.551C105.113 96.7443 108.907 82.7857 108.907 82.7857L124.967 81.1983L133.786 88.4183C133.786 88.4183 134.637 93.3238 134.585 98.9359Z" fill="#F9B384"/>
<path d="M107.951 99.2303C107.951 99.2303 111.491 99.069 112.096 89.9442C118.427 92.059 123.052 90.1311 126.718 85.9194C129.845 90.0441 138.6 91.337 141.556 82.8906C143.692 76.7895 137.795 67.7005 129.207 73.2051C120.79 68.9576 108.023 69.2495 104.349 79.6673C104.349 79.6673 91.5775 85.5482 105.101 98.4955C105.372 98.7541 107.951 99.2303 107.951 99.2303Z" fill="#102048"/>
<path d="M156.77 227.283L147.025 374.422H124.122L129.848 231.643L133.352 230.022L156.77 227.283Z" fill="#102048"/>
<path d="M97.1173 207.151L81.0509 374.422H106.005L129.763 235.483L156.767 227.29L157.965 197.591L97.8011 196.227L97.1173 207.151Z" fill="#1F3C88"/>
<path d="M151.665 197.448H151.653L151.64 197.397L151.665 197.448Z" fill="#6C758D"/>
<path d="M116.359 209.345C116.684 207.848 116.987 206.352 117.267 204.867C117.557 204.87 117.846 204.873 118.135 204.873C119.371 204.873 120.604 204.839 121.829 204.778C125.746 204.593 129.592 204.102 133.283 203.375C139.467 202.177 145.271 200.364 150.368 198.295C150.83 198.121 151.281 197.926 151.722 197.742L151.653 197.448H151.665L152.947 200.013C148.258 204.819 130.935 209.015 116.359 209.345Z" fill="#162B62"/>
<path d="M151.722 197.742C151.281 197.926 150.83 198.121 150.368 198.295C145.271 200.364 139.467 202.177 133.283 203.375C129.592 204.102 125.746 204.593 121.829 204.778C115.922 205.075 109.851 204.686 103.841 203.324L111.481 132.189L112.415 123.515C112.415 123.515 122.413 135.804 133.437 122.234L151.722 197.742Z" fill="white"/>
<path d="M118.135 204.873C117.846 204.873 117.557 204.87 117.267 204.867C122.03 179.592 120.423 155.93 115.948 132.908C122.041 150.776 127.329 182.918 121.829 204.778C120.604 204.839 119.371 204.873 118.135 204.873Z" fill="#BBC4DB"/>
<path d="M113.312 120.698C120.908 152.907 124.034 186.049 112.842 222.853C104.542 226.005 95.506 225.969 85.8367 223.194L88.2295 156.286L31.912 194.946L28.4937 173.868C50.1425 153.193 87.5732 121.966 113.312 120.698Z" fill="#708CD5"/>
<path d="M133.283 203.375C129.889 183.937 129.141 152.005 131.899 137.596L150.368 198.295C145.271 200.364 139.467 202.177 133.283 203.375Z" fill="#BBC4DB"/>
<path d="M191.932 147.21C191.414 147.21 190.84 147.159 190.199 147.059L184.036 140.054L183.974 139.982L184.774 135.783L184.938 135.302L185.861 132.619L185.974 132.271L198.341 136.961C198.311 137.084 198.29 137.197 198.259 137.309C196.693 143.72 196.272 147.21 191.932 147.21Z" fill="#EB9B76"/>
<path d="M197.275 143.485C197.275 143.485 182.149 175.488 173.175 176.256C164.476 177.001 160.357 168.576 160.357 168.576L166.51 215.347C159.28 218.726 151.394 220.375 142.236 218.757C134.103 192.386 131.03 158.288 130.425 120.314C137.008 120.724 150.048 121.285 154.716 124.283C163.092 129.659 173.432 148.861 173.432 148.861L185.482 132.476L197.275 143.485Z" fill="#708CD5"/>
<path d="M12.8737 98.3906C12.8737 98.3906 13.7892 83.0827 15.3495 83.8047C16.9098 84.5267 20.0389 97.8375 20.0389 97.8375L16.693 103.232L12.8737 98.3906Z" fill="#6F3428"/>
<path d="M58.9078 374.849L59.3611 379.888C60.1613 388.783 53.589 396.643 44.6822 397.441L43.3852 397.557C34.4786 398.355 26.6084 391.793 25.8082 382.899L25.3549 377.86L58.9078 374.849Z" fill="#EE6F57"/>
<path d="M36.9575 130.865L58.9081 374.85L25.3549 377.86L3.4046 133.874L36.9575 130.865Z" fill="#FBC343"/>
<path d="M13.1984 132.995L12.6664 127.084L26.6254 125.832L27.1574 131.743L25.1146 131.928L24.7662 128.054L14.8928 128.94L15.2412 132.814L13.1984 132.995Z" fill="#D4C2BE"/>
<path d="M32.0902 342.984L13.1985 132.995L15.2413 132.814L33.9497 340.759L43.8231 339.874L25.1147 131.928L27.1575 131.743L45.9577 340.711L44.9363 340.803L45.9577 340.711L46.0495 341.732L32.0902 342.984Z" fill="#D1983B"/>
<path d="M58.9034 374.852L25.359 377.863L24.477 368.032L23.8617 361.201L21.9645 340.206L55.5192 337.196L57.4062 358.19L58.0215 365.021L58.9034 374.852Z" fill="#102048"/>
<path d="M58.0215 365.021L24.477 368.031L23.8617 361.201L57.4062 358.19L58.0215 365.021Z" fill="#FBC343"/>
<path d="M3.40027 133.876L12.7204 96.5728C12.7204 96.5728 15.9374 97.9989 19.8395 95.5923L36.9558 130.865L3.40027 133.876Z" fill="#EE6F57"/>
<path d="M109.808 97.6865C109.657 97.1361 107.153 96.3808 106.602 96.2297C105.749 95.9942 104.819 95.879 103.987 96.2528C100.958 97.62 101.363 101.949 102.932 104.225C103.821 105.513 105.122 106.507 106.635 106.939C107.185 107.096 112.394 107.16 112.166 106.322L109.808 97.6865Z" fill="#F9B384"/>
<path d="M14.4783 184.705C13.6913 182.237 11.1021 180.855 8.65164 181.7C4.83443 183.016 1.50999 185.248 0.994923 189.048C0.526264 192.507 2.25861 203.554 9.99635 204.975L9.36463 199.296C9.36463 199.296 14.1022 198.193 15.0498 196.142C15.7128 194.708 15.7572 188.715 14.4783 184.705Z" fill="#F9B384"/>
<path d="M157.993 146.706C158.4 149.123 158.746 151.547 159.077 153.974C159.423 156.399 159.695 158.834 160.008 161.263L160.803 168.565C161.033 171.005 161.262 173.443 161.41 175.893L161.013 175.939C160.592 173.522 160.251 171.095 159.913 168.67L158.998 161.381C158.741 158.944 158.444 156.514 158.218 154.074C157.98 151.637 157.757 149.197 157.595 146.752L157.993 146.706Z" fill="#1F3C88"/>
<path d="M89.0281 146.311C89.0225 149.025 88.9561 151.739 88.8756 154.45C88.8069 157.162 88.6669 159.873 88.5662 162.582L88.1216 170.708C87.9401 173.417 87.7534 176.123 87.4899 178.827L87.0894 178.806C87.082 176.093 87.152 173.379 87.2266 170.667L87.5512 162.536C87.7068 159.827 87.8232 157.116 88.0108 154.41C88.1867 151.703 88.3767 148.995 88.6277 146.291L89.0281 146.311Z" fill="#1F3C88"/>
<path d="M122.253 97.4331C122.47 98.3983 122.072 99.3097 121.364 99.4685C120.655 99.6272 119.906 98.9718 119.689 98.0066C119.472 97.0414 119.871 96.1299 120.579 95.9712C121.287 95.8124 122.037 96.4678 122.253 97.4331Z" fill="#102048"/>
<path d="M132.475 96.2399C132.432 97.2282 131.811 98.004 131.086 97.9732C130.361 97.9425 129.808 97.1181 129.849 96.1273C129.891 95.139 130.513 94.3632 131.237 94.3939C131.963 94.4247 132.516 95.2491 132.475 96.2399Z" fill="#102048"/>
<path d="M126.775 97.0489C127.127 97.8964 127.071 98.8078 127.298 99.5017C127.414 99.8524 127.574 100.162 127.795 100.354C128.001 100.541 128.334 100.661 128.757 100.825C129.193 100.994 129.656 101.294 129.972 101.742C130.308 102.175 130.4 102.925 130.096 103.416C129.824 103.908 129.431 104.179 129.095 104.428C128.743 104.666 128.404 104.917 128.039 105.139L127.775 104.837C128.044 104.507 128.34 104.205 128.623 103.89C128.914 103.588 129.182 103.296 129.285 103.027C129.502 102.554 129.037 102.034 128.364 101.768C128.018 101.609 127.518 101.471 127.114 101.058C126.725 100.661 126.533 100.167 126.456 99.7039C126.287 98.7541 126.481 97.9425 126.388 97.1539L126.775 97.0489Z" fill="#E28B6D"/>
<path d="M117.36 94.8396C117.512 94.2328 117.882 93.6567 118.407 93.2445C118.924 92.8144 119.598 92.584 120.266 92.5481C121.613 92.4662 122.946 93.2317 123.5 94.3634L123.186 94.6117C122.295 93.9127 121.315 93.5313 120.315 93.5671C119.313 93.5927 118.404 94.1073 117.724 95.0085L117.36 94.8396Z" fill="#102048"/>
<path d="M127.945 93.585C128.096 93.1113 128.363 92.6607 128.75 92.292C129.128 91.9131 129.657 91.6622 130.205 91.5726C131.306 91.3908 132.491 91.9489 132.924 92.927L132.604 93.1677C131.883 92.6838 131.098 92.4789 130.356 92.5813C129.985 92.63 129.633 92.7682 129.285 92.9731C128.943 93.1856 128.631 93.4749 128.29 93.7898L127.945 93.585Z" fill="#102048"/>
<path d="M122.272 106.968C124.063 109.766 126.449 110.071 128.291 107.126L122.272 106.968Z" fill="white"/>
<path d="M134.124 104.927C134.126 104.917 134.129 104.907 134.129 104.896C134.129 104.907 134.126 104.917 134.124 104.927ZM134.493 101.67C134.552 100.751 134.58 99.8346 134.585 98.9359C134.588 98.7106 134.588 98.4853 134.588 98.26C134.603 98.2575 134.619 98.2549 134.634 98.2524C134.629 99.2585 134.58 100.467 134.493 101.67Z" fill="#FECFC9"/>
<path d="M134.124 104.927C132.883 104.528 131.981 103.37 131.981 101.988C131.981 100.457 133.142 98.5289 134.588 98.26C134.588 98.4853 134.588 98.7106 134.585 98.9359C134.58 99.8346 134.552 100.751 134.493 101.67C134.409 102.81 134.288 103.941 134.129 104.896C134.129 104.907 134.127 104.917 134.124 104.927Z" fill="#FAA280"/>
<path d="M117.901 107.119C116.074 107.119 114.594 105.641 114.594 103.818C114.594 101.993 116.074 100.516 117.901 100.516C119.727 100.516 121.208 101.993 121.208 103.818C121.208 105.641 119.727 107.119 117.901 107.119Z" fill="#FAA280"/>
<path d="M107.64 100.977C106.987 100.534 106.387 100.05 105.791 99.7604C105.496 99.6171 105.221 99.53 104.975 99.5505C104.728 99.5684 104.443 99.7118 104.122 99.9396L103.786 99.722C103.925 99.3149 104.22 98.8567 104.76 98.6774C105.297 98.4905 105.841 98.6416 106.244 98.849C107.06 99.2944 107.619 99.9499 107.959 100.736L107.64 100.977Z" fill="#E28B6D"/>
<path d="M10.2901 210.584L9.81406 205.118L10.3025 210.549L10.2901 210.584Z" fill="#A9857E"/>
<path d="M10.3025 210.549L9.81406 205.118L9.79816 204.937C9.8638 204.949 9.92968 204.962 9.99634 204.975L9.36462 199.296C9.36462 199.296 9.53102 199.258 9.80765 199.181C10.5955 198.984 11.2811 198.746 11.8853 198.475C13.179 197.942 14.5801 197.159 15.0498 196.142L10.3025 210.549Z" fill="#A76D33"/>
<path d="M9.99632 204.975C9.92967 204.962 9.86378 204.949 9.79814 204.937L9.30743 199.299C9.47844 199.261 9.64535 199.222 9.80763 199.181C9.531 199.258 9.36461 199.296 9.36461 199.296L9.99632 204.975ZM11.8853 198.475C13.308 197.837 14.2763 197.023 15.0498 196.142C14.5801 197.159 13.179 197.942 11.8853 198.475Z" fill="#A6674D"/>
</svg>
