<svg width="251" height="44" viewBox="0 0 251 44" fill="none" xmlns="http://www.w3.org/2000/svg">
<path fill-rule="evenodd" clip-rule="evenodd" d="M250.5 10.2942C250.5 4.77134 246.023 0.294189 240.5 0.294189H12.5C5.87258 0.294189 0.5 5.66677 0.5 12.2942V19.1632V20.2658C0.5 20.2815 0.512724 20.2942 0.528419 20.2942C0.543047 20.2942 0.55529 20.3054 0.556742 20.3199C1.75663 32.3468 22.2596 40.7264 87.9696 40.7264C103.256 40.7264 111.787 41.6786 119.119 42.4968C131.07 43.8305 139.832 44.8084 169.463 40.7264C182.459 38.9361 193.304 38.907 202.961 38.881C220.027 38.8351 233.384 38.7992 248.351 29.0712C249.57 28.2787 250.287 26.9045 250.382 25.4536C250.487 23.8444 250.601 22.1054 250.343 20.3853C250.336 20.3374 250.373 20.2942 250.421 20.2942C250.465 20.2942 250.5 20.2589 250.5 20.2155V10.2942Z" fill="#58A5EF"/>
</svg>
