<svg width="inherit" height="inherit" fill="inherit" xmlns="http://www.w3.org/2000/svg">
<g clip-path="url(#clip0_104_663)">
<path d="M12 0.735107C5.37097 0.735107 0 5.93823 0 12.3601C0 18.782 5.37097 23.9851 12 23.9851C18.629 23.9851 24 18.782 24 12.3601C24 5.93823 18.629 0.735107 12 0.735107ZM17.8935 8.69917L15.9242 17.6898C15.779 18.3273 15.3871 18.482 14.8403 18.182L11.8403 16.0398L10.3935 17.3898C10.2339 17.5445 10.0984 17.6757 9.78871 17.6757L10.0016 14.7179L15.5613 9.85229C15.8032 9.64604 15.5081 9.52886 15.1887 9.73511L8.31774 13.9257L5.35645 13.0304C4.7129 12.8335 4.69839 12.407 5.49194 12.107L17.0613 7.78511C17.5984 7.59761 18.0677 7.91167 17.8935 8.69917V8.69917Z" fill="black"/>
</g>
<defs>
<clipPath id="clip0_104_663">
<rect width="24" height="24" fill="white" transform="translate(0 0.360107)"/>
</clipPath>
</defs>
</svg>
