<svg width="inherit" height="inherit" fill="inherit" xmlns="http://www.w3.org/2000/svg">
<path d="M9.0017 12.9527L12.1142 14.8352C12.6842 15.1802 13.3817 14.6702 13.2317 14.0252L12.4067 10.4852L15.1592 8.10019C15.6617 7.66519 15.3917 6.84019 14.7317 6.78769L11.1092 6.48019L9.6917 3.13519C9.4367 2.52769 8.5667 2.52769 8.3117 3.13519L6.8942 6.47269L3.2717 6.78019C2.6117 6.83269 2.3417 7.65769 2.8442 8.09269L5.5967 10.4777L4.7717 14.0177C4.6217 14.6627 5.3192 15.1727 5.8892 14.8277L9.0017 12.9527Z" fill="black"/>
<path d="M32.7375 6.78L29.1075 6.465L27.69 3.1275C27.435 2.52 26.565 2.52 26.31 3.1275L24.8925 6.4725L21.27 6.78C20.61 6.8325 20.34 7.6575 20.8425 8.0925L23.595 10.4775L22.77 14.0175C22.62 14.6625 23.3175 15.1725 23.8875 14.8275L27 12.9525L30.1125 14.835C30.6825 15.18 31.38 14.67 31.23 14.025L30.405 10.4775L33.1575 8.0925C33.66 7.6575 33.3975 6.8325 32.7375 6.78V6.78ZM27 11.55L24.18 13.2525L24.93 10.0425L22.44 7.8825L25.725 7.5975L27 4.575L28.2825 7.605L31.5675 7.89L29.0775 10.05L29.8275 13.26L27 11.55Z" fill="black"/>
</svg>
