<svg width="18" height="19" viewBox="0 0 18 19" fill="none" xmlns="http://www.w3.org/2000/svg">
<path d="M8.99997 1.93481C6.09747 1.93481 3.74997 4.28231 3.74997 7.18481C3.74997 11.1223 8.99997 16.9348 8.99997 16.9348C8.99997 16.9348 14.25 11.1223 14.25 7.18481C14.25 4.28231 11.9025 1.93481 8.99997 1.93481ZM5.24997 7.18481C5.24997 5.11481 6.92997 3.43481 8.99997 3.43481C11.07 3.43481 12.75 5.11481 12.75 7.18481C12.75 9.34481 10.59 12.5773 8.99997 14.5948C7.43997 12.5923 5.24997 9.32231 5.24997 7.18481Z" fill="white"/>
<path d="M9 9.05981C10.0355 9.05981 10.875 8.22035 10.875 7.18481C10.875 6.14928 10.0355 5.30981 9 5.30981C7.96447 5.30981 7.125 6.14928 7.125 7.18481C7.125 8.22035 7.96447 9.05981 9 9.05981Z" fill="white"/>
</svg>
