<svg width="25" height="25" viewBox="0 0 25 25" fill="none" xmlns="http://www.w3.org/2000/svg">
<path d="M12.49 2.93481C6.97 2.93481 2.5 7.41481 2.5 12.9348C2.5 18.4548 6.97 22.9348 12.49 22.9348C18.02 22.9348 22.5 18.4548 22.5 12.9348C22.5 7.41481 18.02 2.93481 12.49 2.93481ZM12.5 20.9348C8.08 20.9348 4.5 17.3548 4.5 12.9348C4.5 8.51481 8.08 4.93481 12.5 4.93481C16.92 4.93481 20.5 8.51481 20.5 12.9348C20.5 17.3548 16.92 20.9348 12.5 20.9348ZM12.28 7.93481H12.22C11.82 7.93481 11.5 8.25481 11.5 8.65481V13.3748C11.5 13.7248 11.68 14.0548 11.99 14.2348L16.14 16.7248C16.48 16.9248 16.92 16.8248 17.12 16.4848C17.33 16.1448 17.22 15.6948 16.87 15.4948L13 13.1948V8.65481C13 8.25481 12.68 7.93481 12.28 7.93481Z" fill="#58A5EF"/>
</svg>
