<svg width="inherit" height="inherit" fill="inherit" xmlns="http://www.w3.org/2000/svg">
<g clip-path="url(#clip0_104_640)">
<path d="M5.69064 24.3396C5.42064 24.3152 4.95939 24.2364 4.67814 24.1633C2.48627 23.5989 0.761266 21.8739 0.196891 19.6821C0.121891 19.3877 0.0450161 18.9377 0.0187661 18.6321C0.00751613 18.4858 1.61247e-05 16.2771 1.61247e-05 12.3583C1.61247e-05 5.7808 -0.00373388 6.05455 0.103141 5.46768C0.397516 3.86455 1.31439 2.4358 2.64939 1.49643C3.58314 0.840179 4.63314 0.467054 5.79377 0.378929C6.19502 0.348929 18.2288 0.362054 18.45 0.393929C19.53 0.547679 20.3419 0.840179 21.1575 1.36705C21.5194 1.60143 21.7631 1.7983 22.1119 2.14143C22.7119 2.72643 23.1394 3.3358 23.4656 4.0783C23.7169 4.64455 23.8613 5.17893 23.9663 5.91018C23.9981 6.13143 24.0113 18.1652 23.9813 18.5664C23.8969 19.6633 23.5594 20.6627 22.9669 21.5571C22.0238 22.9821 20.5631 23.9496 18.8925 24.2571C18.3056 24.3639 18.5869 24.3602 11.9644 24.3583C8.61752 24.3564 5.79377 24.3471 5.69064 24.3396ZM18.2625 22.2789C20.0006 22.0652 21.4088 20.8258 21.8344 19.1383C21.9638 18.6246 21.9563 19.0839 21.9563 12.3508C21.9563 6.9958 21.9525 6.24205 21.9281 6.04705C21.8344 5.33643 21.5644 4.6633 21.135 4.08393C20.955 3.84018 20.52 3.40518 20.2763 3.22518C19.6969 2.7958 19.0238 2.5258 18.3131 2.43205C18.1181 2.40768 17.3644 2.40393 12.0094 2.40393C5.27627 2.40393 5.73564 2.39643 5.22189 2.5258C3.52877 2.9533 2.27627 4.38205 2.08127 6.11455C2.06627 6.24205 2.06252 8.11143 2.06627 12.4633L2.07189 18.6321L2.12439 18.8908C2.42814 20.4114 3.48189 21.6152 4.92564 22.0914C5.17314 22.1721 5.57252 22.2621 5.79377 22.2846C5.96439 22.3033 18.1144 22.2958 18.2625 22.2789Z" fill="black"/>
<path d="M18.3469 20.3402C17.8257 20.2184 17.4263 19.8302 17.2988 19.3146C17.2557 19.1402 17.2594 18.8365 17.3063 18.6527C17.5126 17.8427 18.3994 17.404 19.1719 17.7284C19.3801 17.8146 19.6463 18.0284 19.7644 18.2027C20.0926 18.6865 20.0888 19.324 19.7532 19.7946C19.5863 20.029 19.3576 20.1977 19.0744 20.2971C18.9338 20.3459 18.8757 20.3534 18.6844 20.359C18.5382 20.3646 18.4201 20.3571 18.3469 20.3402Z" fill="black"/>
<path d="M11.6156 18.3114C10.1419 18.1952 8.81439 17.5914 7.79251 16.5677C6.84751 15.6245 6.26814 14.4395 6.08064 13.0727C6.03564 12.7408 6.03564 11.9552 6.08251 11.6195C6.21564 10.6427 6.51564 9.83828 7.04064 9.05078C7.85814 7.82265 9.07876 6.94515 10.485 6.57578C11.3663 6.34515 12.3263 6.3189 13.2169 6.50265C14.3644 6.7389 15.3919 7.2939 16.2281 8.13203C17.1788 9.08265 17.7563 10.2564 17.9381 11.6102C17.9794 11.9233 17.985 12.7164 17.9475 13.0164C17.7713 14.4114 17.19 15.6095 16.2188 16.5789C15.2813 17.5145 14.0831 18.0995 12.7406 18.2758C12.5269 18.3058 11.8144 18.3264 11.6156 18.3114ZM12.3656 16.4833C13.1681 16.4158 13.965 16.0952 14.6063 15.5852C14.8181 15.4145 15.1669 15.0545 15.33 14.8352C15.75 14.2727 16.0069 13.6577 16.1194 12.9508C16.1644 12.662 16.1644 12.0377 16.1194 11.7433C15.8344 9.92265 14.4375 8.52578 12.6169 8.24078C12.33 8.19578 11.6813 8.19578 11.4038 8.24078C10.0313 8.46203 8.88939 9.30015 8.28751 10.5283C7.66501 11.7958 7.72876 13.2845 8.45814 14.492C8.79001 15.0395 9.32064 15.5702 9.86814 15.902C10.6163 16.3539 11.4975 16.5583 12.3656 16.4833Z" fill="black"/>
</g>
<defs>
<clipPath id="clip0_104_640">
<rect width="24" height="24" fill="white" transform="matrix(1 0 0 -1 0 24.3601)"/>
</clipPath>
</defs>
</svg>
