<svg width="32" height="32" viewBox="0 0 68 68" fill="none" xmlns="http://www.w3.org/2000/svg">
<path d="M57.6705 52.1927H52.335V52.7804V64.64L37.1252 52.1927H25.6705C23.9921 52.1927 20.6093 52.1927 20.335 52.1927C20.335 52.1927 22.5228 50.6906 25.6705 48.6335H32.7823H38.1179L48.7823 57.5282V52.1927V48.64H57.6705C59.6362 48.64 61.2232 47.0465 61.2232 45.0874V23.7519C61.2232 21.7861 59.6297 20.1992 57.6705 20.1992H54.1179V16.64H57.6705C61.5954 16.64 64.7823 19.827 64.7823 23.7519V45.0874C64.7823 49.0123 61.5954 52.1927 57.6705 52.1927ZM43.4468 41.5282H31.006L22.4379 46.8637L13.2232 52.1992V42.1159V41.5282H12.6093H11.4468H7.89419C3.96929 41.5282 0.782349 38.3478 0.782349 34.4163V7.75185C0.782349 3.82695 3.96929 0.640015 7.89419 0.640015H43.4468C47.3717 0.640015 50.5587 3.82695 50.5587 7.75185V34.4229C50.5587 38.3478 47.3783 41.5282 43.4468 41.5282ZM47.006 7.75185C47.006 5.78614 45.4126 4.1992 43.4534 4.1992H7.89419C5.92847 4.1992 4.34153 5.79267 4.34153 7.75185V34.4229C4.34153 36.3821 5.935 37.9755 7.89419 37.9755H16.7823V45.0874V46.8637L24.7823 41.5282L30.1179 37.9755H43.4534C45.4191 37.9755 47.006 36.3821 47.006 34.4229V7.75185ZM35.4468 23.7519C33.9774 23.7519 32.7823 22.5567 32.7823 21.0874C32.7823 19.618 33.9774 18.4229 35.4468 18.4229C36.9162 18.4229 38.1113 19.618 38.1113 21.0874C38.1179 22.5567 36.9228 23.7519 35.4468 23.7519ZM24.7823 23.7519C23.313 23.7519 22.1179 22.5567 22.1179 21.0874C22.1179 19.618 23.313 18.4229 24.7823 18.4229C26.2517 18.4229 27.4468 19.618 27.4468 21.0874C27.4468 22.5567 26.2517 23.7519 24.7823 23.7519ZM14.1179 23.7519C12.6485 23.7519 11.4534 22.5567 11.4534 21.0874C11.4534 19.618 12.6485 18.4229 14.1179 18.4229C15.5872 18.4229 16.7823 19.618 16.7823 21.0874C16.7823 22.5567 15.5872 23.7519 14.1179 23.7519Z" fill="black"/>
</svg>
