<svg width="65" height="64" viewBox="0 0 65 64" fill="none" xmlns="http://www.w3.org/2000/svg">
<path d="M41.609 34.6667C43.609 34.6667 45.369 33.5734 46.2756 31.92L55.8223 14.6134C56.809 12.8534 55.529 10.6667 53.5023 10.6667H14.0356L11.529 5.33337H2.80896V10.6667H8.14229L17.7423 30.9067L14.1423 37.4134C12.1956 40.9867 14.7556 45.3334 18.809 45.3334H50.809V40H18.809L21.7423 34.6667H41.609ZM16.569 16H48.969L41.609 29.3334H22.889L16.569 16ZM18.809 48C15.8756 48 13.5023 50.4 13.5023 53.3334C13.5023 56.2667 15.8756 58.6667 18.809 58.6667C21.7423 58.6667 24.1423 56.2667 24.1423 53.3334C24.1423 50.4 21.7423 48 18.809 48ZM45.4756 48C42.5423 48 40.169 50.4 40.169 53.3334C40.169 56.2667 42.5423 58.6667 45.4756 58.6667C48.409 58.6667 50.809 56.2667 50.809 53.3334C50.809 50.4 48.409 48 45.4756 48Z" fill="black"/>
</svg>
