<svg width="447" height="13" viewBox="0 0 447 13" fill="none" xmlns="http://www.w3.org/2000/svg">
<path d="M6.41943 10.2769L9.53193 12.1594C10.1019 12.5044 10.7994 11.9944 10.6494 11.3494L9.82443 7.80938L12.5769 5.42438C13.0794 4.98938 12.8094 4.16438 12.1494 4.11188L8.52693 3.80438L7.10943 0.459379C6.85443 -0.148121 5.98443 -0.148121 5.72943 0.459379L4.31193 3.79688L0.689427 4.10438C0.0294271 4.15688 -0.240573 4.98188 0.261927 5.41688L3.01443 7.80188L2.18943 11.3419C2.03943 11.9869 2.73693 12.4969 3.30693 12.1519L6.41943 10.2769Z" fill="black"/>
<path d="M29.2549 10.2769L32.3674 12.1594C32.9374 12.5044 33.6349 11.9944 33.4849 11.3494L32.6599 7.80938L35.4124 5.42438C35.9149 4.98938 35.6449 4.16438 34.9849 4.11188L31.3624 3.80438L29.9449 0.459379C29.6899 -0.148121 28.8199 -0.148121 28.5649 0.459379L27.1474 3.79688L23.5249 4.10438C22.8649 4.15688 22.5949 4.98188 23.0974 5.41688L25.8499 7.80188L25.0249 11.3419C24.8749 11.9869 25.5724 12.4969 26.1424 12.1519L29.2549 10.2769Z" fill="black"/>
<path d="M52.0903 10.2769L55.2028 12.1594C55.7728 12.5044 56.4703 11.9944 56.3203 11.3494L55.4953 7.80938L58.2478 5.42438C58.7503 4.98938 58.4803 4.16438 57.8203 4.11188L54.1978 3.80438L52.7803 0.459379C52.5253 -0.148121 51.6553 -0.148121 51.4003 0.459379L49.9828 3.79688L46.3603 4.10438C45.7003 4.15688 45.4303 4.98188 45.9328 5.41688L48.6853 7.80188L47.8603 11.3419C47.7103 11.9869 48.4078 12.4969 48.9778 12.1519L52.0903 10.2769Z" fill="black"/>
<path d="M74.9258 10.2769L78.0383 12.1594C78.6083 12.5044 79.3058 11.9944 79.1558 11.3494L78.3308 7.80938L81.0833 5.42438C81.5858 4.98938 81.3158 4.16438 80.6558 4.11188L77.0333 3.80438L75.6158 0.459379C75.3608 -0.148121 74.4908 -0.148121 74.2358 0.459379L72.8183 3.79688L69.1958 4.10438C68.5358 4.15688 68.2658 4.98188 68.7683 5.41688L71.5208 7.80188L70.6958 11.3419C70.5458 11.9869 71.2433 12.4969 71.8133 12.1519L74.9258 10.2769Z" fill="black"/>
<path d="M97.7612 10.2769L100.874 12.1594C101.444 12.5044 102.141 11.9944 101.991 11.3494L101.166 7.80938L103.919 5.42438C104.421 4.98938 104.151 4.16438 103.491 4.11188L99.8687 3.80438L98.4512 0.459379C98.1962 -0.148121 97.3262 -0.148121 97.0712 0.459379L95.6537 3.79688L92.0312 4.10438C91.3712 4.15688 91.1012 4.98188 91.6037 5.41688L94.3562 7.80188L93.5312 11.3419C93.3812 11.9869 94.0787 12.4969 94.6487 12.1519L97.7612 10.2769Z" fill="black"/>
<path d="M120.597 10.2769L123.709 12.1594C124.279 12.5044 124.977 11.9944 124.827 11.3494L124.002 7.80938L126.754 5.42438C127.257 4.98938 126.987 4.16438 126.327 4.11188L122.704 3.80438L121.287 0.459379C121.032 -0.148121 120.162 -0.148121 119.907 0.459379L118.489 3.79688L114.867 4.10438C114.207 4.15688 113.937 4.98188 114.439 5.41688L117.192 7.80188L116.367 11.3419C116.217 11.9869 116.914 12.4969 117.484 12.1519L120.597 10.2769Z" fill="black"/>
<path d="M143.432 10.2769L146.545 12.1594C147.115 12.5044 147.812 11.9944 147.662 11.3494L146.837 7.80938L149.59 5.42438C150.092 4.98938 149.822 4.16438 149.162 4.11188L145.54 3.80438L144.122 0.459379C143.867 -0.148121 142.997 -0.148121 142.742 0.459379L141.325 3.79688L137.702 4.10438C137.042 4.15688 136.772 4.98188 137.275 5.41688L140.027 7.80188L139.202 11.3419C139.052 11.9869 139.75 12.4969 140.32 12.1519L143.432 10.2769Z" fill="black"/>
<path d="M166.268 10.2769L169.38 12.1594C169.95 12.5044 170.648 11.9944 170.498 11.3494L169.673 7.80938L172.425 5.42438C172.928 4.98938 172.658 4.16438 171.998 4.11188L168.375 3.80438L166.958 0.459379C166.703 -0.148121 165.833 -0.148121 165.578 0.459379L164.16 3.79688L160.538 4.10438C159.878 4.15688 159.608 4.98188 160.11 5.41688L162.863 7.80188L162.038 11.3419C161.888 11.9869 162.585 12.4969 163.155 12.1519L166.268 10.2769Z" fill="black"/>
<path d="M189.103 10.2769L192.216 12.1594C192.786 12.5044 193.483 11.9944 193.333 11.3494L192.508 7.80938L195.261 5.42438C195.763 4.98938 195.493 4.16438 194.833 4.11188L191.211 3.80438L189.793 0.459379C189.538 -0.148121 188.668 -0.148121 188.413 0.459379L186.996 3.79688L183.373 4.10438C182.713 4.15688 182.443 4.98188 182.946 5.41688L185.698 7.80188L184.873 11.3419C184.723 11.9869 185.421 12.4969 185.991 12.1519L189.103 10.2769Z" fill="black"/>
<path d="M211.938 10.2769L215.051 12.1594C215.621 12.5044 216.318 11.9944 216.168 11.3494L215.343 7.80938L218.096 5.42438C218.598 4.98938 218.328 4.16438 217.668 4.11188L214.046 3.80438L212.628 0.459379C212.373 -0.148121 211.503 -0.148121 211.248 0.459379L209.831 3.79688L206.208 4.10438C205.548 4.15688 205.278 4.98188 205.781 5.41688L208.533 7.80188L207.708 11.3419C207.558 11.9869 208.256 12.4969 208.826 12.1519L211.938 10.2769Z" fill="black"/>
<path d="M240.511 4.10812L236.881 3.79312L235.464 0.455625C235.209 -0.151875 234.339 -0.151875 234.084 0.455625L232.666 3.80062L229.044 4.10812C228.384 4.16062 228.114 4.98562 228.616 5.42062L231.369 7.80562L230.544 11.3456C230.394 11.9906 231.091 12.5006 231.661 12.1556L234.774 10.2806L237.886 12.1631C238.456 12.5081 239.154 11.9981 239.004 11.3531L238.179 7.80562L240.931 5.42062C241.434 4.98562 241.171 4.16062 240.511 4.10812V4.10812ZM234.774 8.87812L231.954 10.5806L232.704 7.37062L230.214 5.21062L233.499 4.92562L234.774 1.90312L236.056 4.93312L239.341 5.21812L236.851 7.37812L237.601 10.5881L234.774 8.87812Z" fill="black"/>
<path d="M263.349 4.10812L259.719 3.79312L258.301 0.455625C258.046 -0.151875 257.176 -0.151875 256.921 0.455625L255.504 3.80062L251.881 4.10812C251.221 4.16062 250.951 4.98562 251.454 5.42062L254.206 7.80562L253.381 11.3456C253.231 11.9906 253.929 12.5006 254.499 12.1556L257.611 10.2806L260.724 12.1631C261.294 12.5081 261.991 11.9981 261.841 11.3531L261.016 7.80562L263.769 5.42062C264.271 4.98562 264.009 4.16062 263.349 4.10812V4.10812ZM257.611 8.87812L254.791 10.5806L255.541 7.37062L253.051 5.21062L256.336 4.92562L257.611 1.90312L258.894 4.93312L262.179 5.21812L259.689 7.37812L260.439 10.5881L257.611 8.87812Z" fill="black"/>
<path d="M286.186 4.10812L282.556 3.79312L281.139 0.455625C280.884 -0.151875 280.014 -0.151875 279.759 0.455625L278.341 3.80062L274.719 4.10812C274.059 4.16062 273.789 4.98562 274.291 5.42062L277.044 7.80562L276.219 11.3456C276.069 11.9906 276.766 12.5006 277.336 12.1556L280.449 10.2806L283.561 12.1631C284.131 12.5081 284.829 11.9981 284.679 11.3531L283.854 7.80562L286.606 5.42062C287.109 4.98562 286.846 4.16062 286.186 4.10812V4.10812ZM280.449 8.87812L277.629 10.5806L278.379 7.37062L275.889 5.21062L279.174 4.92562L280.449 1.90312L281.731 4.93312L285.016 5.21812L282.526 7.37812L283.276 10.5881L280.449 8.87812Z" fill="black"/>
<path d="M309.024 4.10812L305.394 3.79312L303.977 0.455625C303.722 -0.151875 302.852 -0.151875 302.597 0.455625L301.179 3.80062L297.557 4.10812C296.897 4.16062 296.627 4.98562 297.129 5.42062L299.882 7.80562L299.057 11.3456C298.907 11.9906 299.604 12.5006 300.174 12.1556L303.287 10.2806L306.399 12.1631C306.969 12.5081 307.667 11.9981 307.517 11.3531L306.692 7.80562L309.444 5.42062C309.947 4.98562 309.684 4.16062 309.024 4.10812V4.10812ZM303.287 8.87812L300.467 10.5806L301.217 7.37062L298.727 5.21062L302.012 4.92562L303.287 1.90312L304.569 4.93312L307.854 5.21812L305.364 7.37812L306.114 10.5881L303.287 8.87812Z" fill="black"/>
<path d="M331.862 4.10812L328.232 3.79312L326.814 0.455625C326.559 -0.151875 325.689 -0.151875 325.434 0.455625L324.017 3.80062L320.394 4.10812C319.734 4.16062 319.464 4.98562 319.967 5.42062L322.719 7.80562L321.894 11.3456C321.744 11.9906 322.442 12.5006 323.012 12.1556L326.124 10.2806L329.237 12.1631C329.807 12.5081 330.504 11.9981 330.354 11.3531L329.529 7.80562L332.282 5.42062C332.784 4.98562 332.522 4.16062 331.862 4.10812V4.10812ZM326.124 8.87812L323.304 10.5806L324.054 7.37062L321.564 5.21062L324.849 4.92562L326.124 1.90312L327.407 4.93312L330.692 5.21812L328.202 7.37812L328.952 10.5881L326.124 8.87812Z" fill="black"/>
<path d="M354.699 4.10812L351.069 3.79312L349.652 0.455625C349.397 -0.151875 348.527 -0.151875 348.272 0.455625L346.854 3.80062L343.232 4.10812C342.572 4.16062 342.302 4.98562 342.804 5.42062L345.557 7.80562L344.732 11.3456C344.582 11.9906 345.279 12.5006 345.849 12.1556L348.962 10.2806L352.074 12.1631C352.644 12.5081 353.342 11.9981 353.192 11.3531L352.367 7.80562L355.119 5.42062C355.622 4.98562 355.359 4.16062 354.699 4.10812V4.10812ZM348.962 8.87812L346.142 10.5806L346.892 7.37062L344.402 5.21062L347.687 4.92562L348.962 1.90312L350.244 4.93312L353.529 5.21812L351.039 7.37812L351.789 10.5881L348.962 8.87812Z" fill="black"/>
<path d="M377.537 4.10812L373.907 3.79312L372.49 0.455625C372.235 -0.151875 371.365 -0.151875 371.11 0.455625L369.692 3.80062L366.07 4.10812C365.41 4.16062 365.14 4.98562 365.642 5.42062L368.395 7.80562L367.57 11.3456C367.42 11.9906 368.117 12.5006 368.687 12.1556L371.8 10.2806L374.912 12.1631C375.482 12.5081 376.18 11.9981 376.03 11.3531L375.205 7.80562L377.957 5.42062C378.46 4.98562 378.197 4.16062 377.537 4.10812V4.10812ZM371.8 8.87812L368.98 10.5806L369.73 7.37062L367.24 5.21062L370.525 4.92562L371.8 1.90312L373.082 4.93312L376.367 5.21812L373.877 7.37812L374.627 10.5881L371.8 8.87812Z" fill="black"/>
<path d="M400.375 4.10812L396.745 3.79312L395.327 0.455625C395.072 -0.151875 394.202 -0.151875 393.947 0.455625L392.53 3.80062L388.907 4.10812C388.247 4.16062 387.977 4.98562 388.48 5.42062L391.232 7.80562L390.407 11.3456C390.257 11.9906 390.955 12.5006 391.525 12.1556L394.637 10.2806L397.75 12.1631C398.32 12.5081 399.017 11.9981 398.867 11.3531L398.042 7.80562L400.795 5.42062C401.297 4.98562 401.035 4.16062 400.375 4.10812V4.10812ZM394.637 8.87812L391.817 10.5806L392.567 7.37062L390.077 5.21062L393.362 4.92562L394.637 1.90312L395.92 4.93312L399.205 5.21812L396.715 7.37812L397.465 10.5881L394.637 8.87812Z" fill="black"/>
<path d="M423.212 4.10812L419.582 3.79312L418.165 0.455625C417.91 -0.151875 417.04 -0.151875 416.785 0.455625L415.367 3.80062L411.745 4.10812C411.085 4.16062 410.815 4.98562 411.317 5.42062L414.07 7.80562L413.245 11.3456C413.095 11.9906 413.792 12.5006 414.362 12.1556L417.475 10.2806L420.587 12.1631C421.157 12.5081 421.855 11.9981 421.705 11.3531L420.88 7.80562L423.632 5.42062C424.135 4.98562 423.872 4.16062 423.212 4.10812V4.10812ZM417.475 8.87812L414.655 10.5806L415.405 7.37062L412.915 5.21062L416.2 4.92562L417.475 1.90312L418.757 4.93312L422.042 5.21812L419.552 7.37812L420.302 10.5881L417.475 8.87812Z" fill="black"/>
<path d="M446.05 4.10812L442.42 3.79312L441.002 0.455625C440.747 -0.151875 439.877 -0.151875 439.622 0.455625L438.205 3.80062L434.582 4.10812C433.922 4.16062 433.652 4.98562 434.155 5.42062L436.907 7.80562L436.082 11.3456C435.932 11.9906 436.63 12.5006 437.2 12.1556L440.312 10.2806L443.425 12.1631C443.995 12.5081 444.692 11.9981 444.542 11.3531L443.717 7.80562L446.47 5.42062C446.972 4.98562 446.71 4.16062 446.05 4.10812V4.10812ZM440.312 8.87812L437.492 10.5806L438.242 7.37062L435.752 5.21062L439.037 4.92562L440.312 1.90312L441.595 4.93312L444.88 5.21812L442.39 7.37812L443.14 10.5881L440.312 8.87812Z" fill="black"/>
</svg>
