<svg width="inherit" height="inherit" fill="inherit" xmlns="http://www.w3.org/2000/svg">
<path d="M62.1423 60H60.1423V62H62.1423V60Z" fill="black"/>
<path d="M2.14233 60H0.142334V62H2.14233V60Z" fill="black"/>
<path d="M38.1423 0C32.5713 0 27.7653 3.278 25.5123 8H18.1423V16H20.1423V20H6.14233C5.03933 20 4.14233 20.897 4.14233 22V24C4.14233 25.103 5.03933 26 6.14233 26V60H4.14233V62H58.1423V60H56.1423V16H58.1423V8H50.7723C48.5193 3.278 43.7133 0 38.1423 0ZM50.1423 14C50.1423 18.015 48.1533 21.567 45.1163 23.746C44.9853 22.212 43.7093 21 42.1423 21C41.0393 21 40.1423 20.103 40.1423 19C40.1423 17.897 41.0393 17 42.1423 17C43.7573 17 45.2093 16.103 45.9313 14.658L46.1423 14.236C46.5233 13.474 47.2893 13 48.1423 13C48.8383 13 49.5113 13.195 50.1193 13.55C50.1253 13.7 50.1423 13.848 50.1423 14ZM47.0383 5.975C46.9703 5.979 46.9023 6 46.8343 6C44.7873 6 42.9733 7.229 42.2133 9.129C41.7593 10.266 40.6743 11 39.4503 11H35.5273C34.7633 11 34.1423 10.379 34.1423 9.615C34.1423 9.046 34.4843 8.54 35.0123 8.329L35.8893 7.978C37.8663 7.188 39.1423 5.303 39.1423 3.174C39.1423 2.792 39.2193 2.421 39.3603 2.062C42.3993 2.369 45.0963 3.824 47.0383 5.975ZM37.2833 2.044C37.1973 2.416 37.1423 2.794 37.1423 3.174C37.1423 4.48 36.3593 5.637 35.1473 6.121L34.2703 6.472C32.9773 6.989 32.1423 8.223 32.1423 9.615C32.1423 11.481 33.6613 13 35.5273 13H39.4503C41.4973 13 43.3113 11.771 44.0713 9.871C44.5253 8.734 45.6103 8 46.8343 8C47.3533 8 47.8653 7.911 48.3683 7.753C49.0243 8.822 49.5173 9.999 49.8123 11.254C49.2723 11.094 48.7133 11 48.1423 11C46.5273 11 45.0753 11.897 44.3533 13.342L44.1423 13.764C43.7613 14.526 42.9953 15 42.1423 15C39.9363 15 38.1423 16.794 38.1423 19C38.1423 21.206 39.9363 23 42.1423 23C42.6943 23 43.1423 23.448 43.1423 24C43.1423 24.278 43.1693 24.564 43.2173 24.858C41.6733 25.583 39.9573 26 38.1423 26C36.7323 26 35.3843 25.743 34.1263 25.294C34.1883 25.208 34.2613 25.123 34.3193 25.037C35.5113 23.247 36.1423 21.166 36.1423 19.017V17.955C36.1423 16.325 34.8173 15 33.1873 15C31.5083 15 30.1423 13.634 30.1423 11.955C30.1423 11.178 29.9583 10.397 29.6103 9.698L29.2733 9.024C28.9793 8.437 28.5883 7.888 28.1533 7.362C30.1563 4.358 33.4773 2.315 37.2833 2.044ZM27.1053 9.295C27.2383 9.501 27.3763 9.705 27.4843 9.919L27.8203 10.592C28.0313 11.014 28.1423 11.485 28.1423 11.955C28.1423 14.737 30.4053 17 33.1873 17C33.7133 17 34.1423 17.429 34.1423 17.955V19.017C34.1423 20.77 33.6273 22.468 32.6543 23.929C32.5393 24.102 32.4093 24.275 32.2623 24.45C28.6143 22.389 26.1423 18.481 26.1423 14C26.1423 12.331 26.4863 10.741 27.1053 9.295ZM20.1423 10H24.7323C24.3523 11.269 24.1423 12.61 24.1423 14H20.1423V10ZM20.1423 34H12.1423V30H20.1423V34ZM12.1423 36H20.1423V40H12.1423V36ZM12.1423 42H20.1423V46H12.1423V42ZM12.1423 48H20.1423V52H12.1423V48ZM6.14233 22H20.1423V24H6.14233V22ZM8.14233 26H20.1423V28H10.1423V54H20.1423V60H8.14233V26ZM46.1423 60H39.1423V44H46.1423V60ZM37.1423 60H30.1423V44H37.1423V60ZM54.1423 60H48.1423V42H28.1423V60H22.1423V16H24.3023C25.2783 22.773 31.1033 28 38.1423 28C45.1813 28 51.0073 22.773 51.9823 16H54.1423V60ZM56.1423 10V14H52.1423C52.1423 12.61 51.9323 11.269 51.5523 10H56.1423Z" fill="black"/>
<path d="M25.1423 30V40H51.1423V30H25.1423ZM49.1423 34H45.1423V32H49.1423V34ZM37.1423 36V38H33.1423V36H37.1423ZM33.1423 34V32H37.1423V34H33.1423ZM39.1423 36H43.1423V38H39.1423V36ZM39.1423 34V32H43.1423V34H39.1423ZM31.1423 32V34H27.1423V32H31.1423ZM27.1423 36H31.1423V38H27.1423V36ZM45.1423 38V36H49.1423V38H45.1423Z" fill="black"/>
<path d="M43.1423 50H41.1423V52H43.1423V50Z" fill="black"/>
<path d="M35.1423 50H33.1423V52H35.1423V50Z" fill="black"/>
</svg>
