<svg width="613" height="545" viewBox="0 0 613 545" fill="none" xmlns="http://www.w3.org/2000/svg">
<path d="M1.34495 292.499C14.3105 119.577 115.429 39.861 164.367 21.6186C376.487 -56.3379 500.422 95.2443 553.809 179.894C607.197 264.544 590.99 329.114 528.069 375.574C465.148 422.033 408.988 419.312 386.109 428.761C363.228 438.21 349.793 457.861 328.343 466.916C287.349 488.177 220.615 491.721 164.367 481.484C7.5417 455.498 -1.51509 333.445 1.34495 292.499Z" fill="#F0EFFF"/>
<path d="M584.322 168.591L236.346 179.122C227.464 179.389 220.48 186.807 220.747 195.692L223.44 285.495C223.706 294.38 231.122 301.366 240.004 301.1L587.98 290.568C596.861 290.302 603.845 282.883 603.579 273.998L600.886 184.195C600.619 175.31 593.203 168.324 584.322 168.591Z" fill="#0277BD"/>
<path d="M353.191 247.824L257.142 251.108C255.906 251.147 254.675 250.941 253.519 250.504C252.363 250.066 251.304 249.404 250.403 248.557C249.503 247.71 248.778 246.693 248.27 245.566C247.762 244.438 247.482 243.221 247.445 241.985C247.406 240.749 247.611 239.517 248.049 238.36C248.487 237.204 249.148 236.145 249.995 235.244C250.842 234.343 251.858 233.618 252.985 233.11C254.113 232.602 255.329 232.321 256.565 232.284L352.613 229C353.849 228.961 355.08 229.167 356.237 229.604C357.393 230.042 358.452 230.703 359.352 231.551C360.253 232.398 360.978 233.415 361.485 234.542C361.993 235.67 362.274 236.887 362.311 238.123C362.353 239.36 362.151 240.593 361.715 241.752C361.279 242.91 360.618 243.971 359.77 244.873C358.922 245.775 357.904 246.5 356.775 247.006C355.646 247.513 354.428 247.79 353.191 247.824Z" fill="white"/>
<path d="M321.59 277.49L258.115 279.649C255.632 279.727 253.219 278.819 251.402 277.125C249.585 275.43 248.512 273.085 248.417 270.602C248.379 269.365 248.584 268.134 249.022 266.977C249.459 265.82 250.12 264.761 250.967 263.86C251.814 262.959 252.831 262.234 253.958 261.726C255.085 261.218 256.301 260.938 257.537 260.9L320.997 258.726C322.233 258.688 323.464 258.893 324.62 259.331C325.777 259.769 326.836 260.43 327.736 261.277C328.637 262.125 329.362 263.141 329.869 264.269C330.377 265.396 330.658 266.613 330.695 267.849C330.756 270.333 329.834 272.74 328.128 274.546C326.422 276.352 324.072 277.41 321.59 277.49Z" fill="white"/>
<path d="M89.3351 189.545H87.6369V222.162H89.3351V189.545Z" fill="#B6B4F3"/>
<path d="M89.3351 234.479H87.6369V249.462H89.3351V234.479Z" fill="#B6B4F3"/>
<path d="M149.831 133.637H141.289C139.788 133.637 138.572 134.854 138.572 136.355V144.9C138.572 146.401 139.788 147.618 141.289 147.618H149.831C151.331 147.618 152.548 146.401 152.548 144.9V136.355C152.548 134.854 151.331 133.637 149.831 133.637Z" fill="#FDA951"/>
<path d="M595.067 235.249L597.818 243.779L607.911 234.534C605.818 233.138 603.646 231.864 601.405 230.718C600.595 230.287 599.647 230.196 598.769 230.464C597.892 230.732 597.156 231.337 596.724 232.147L595.067 235.249Z" fill="#FDBD9C"/>
<path d="M607.835 250.804L612.182 240.647L607.911 234.534L597.818 243.779L607.835 250.804Z" fill="#FDBD9C"/>
<path d="M498.683 172.572C493.5 179.552 488.134 186.105 482.404 192.567C476.653 199.122 470.511 205.322 464.012 211.133L463.647 211.453L462.917 212.046C462.432 212.425 461.924 212.775 461.397 213.095C460.324 213.677 459.179 214.117 457.992 214.402C456.048 214.858 454.033 214.92 452.064 214.585C449.227 214.076 446.491 213.11 443.963 211.726C439.864 209.454 436.022 206.747 432.502 203.652C425.891 197.893 419.859 191.502 414.49 184.569L420.57 178.807C426.893 183.961 433.52 189.101 440.148 193.465C443.253 195.575 446.551 197.387 449.997 198.878C451.223 199.43 452.534 199.769 453.873 199.881C454.253 199.881 454.436 199.805 454.208 199.805C454.043 199.818 453.882 199.864 453.736 199.942C453.639 199.98 453.547 200.031 453.463 200.094L453.341 200.17L453.539 199.957C456.32 197.129 459.011 194.088 461.716 191.047C464.422 188.006 467.036 184.813 469.666 181.65C474.895 175.294 480.139 168.756 485.17 162.37L498.683 172.572Z" fill="#FDBD9C"/>
<path d="M414.809 165.547L402.969 167.965L408.79 178.335L419.324 170.17L414.809 165.547Z" fill="#FDBD9C"/>
<path d="M420.813 180.966L419.293 170.17L408.76 178.335C408.76 178.335 410.386 187.732 417.88 187.732L420.813 180.966Z" fill="#FDBD9C"/>
<path d="M560.563 161.001C564.105 167.266 567.509 173.591 570.838 179.977C574.167 186.364 577.42 192.765 580.597 199.227L581.782 201.645L582.785 203.622L583.956 205.674L585.278 207.788C587.117 210.601 589.078 213.49 591.115 216.349L603.503 233.713L597.423 239.491C591.716 234.872 586.285 229.922 581.159 224.666C578.59 222.02 576.052 219.298 573.559 216.333L571.75 214.068L570.017 211.589C569.455 210.707 568.801 209.704 568.315 208.898L566.932 206.587C563.223 200.505 559.621 194.225 556.064 187.991C552.507 181.756 549.057 175.461 545.728 169.105L560.563 161.001Z" fill="#FDBD9C"/>
<path d="M533.385 120.601C534.373 130.879 532.914 140.823 535.225 149.749C535.225 149.749 532.671 158.036 517.486 158.036C500.766 158.036 509.886 149.749 509.886 149.749C519.006 147.575 519.113 140.823 517.775 134.468L533.385 120.601Z" fill="#FDBD9C"/>
<path d="M507.774 533.548H496.602L496.495 507.684H507.652L507.774 533.548Z" fill="#FDBD9C"/>
<path d="M585.81 522.631L574.881 524.957L564.986 500.614L575.915 498.287L585.81 522.631Z" fill="#FDBD9C"/>
<path d="M573.893 523.847L586.16 521.232C586.373 521.189 586.594 521.22 586.788 521.319C586.981 521.419 587.135 521.581 587.224 521.779L591.069 531.116C591.158 531.349 591.195 531.598 591.178 531.847C591.161 532.095 591.09 532.337 590.97 532.556C590.85 532.774 590.684 532.964 590.483 533.112C590.282 533.259 590.052 533.362 589.808 533.412C585.506 534.248 583.393 534.446 577.997 535.601C574.669 536.301 567.889 538.11 563.314 539.083C558.739 540.056 557.341 535.616 559.134 534.795C567.236 531.146 569.957 527.922 572.237 524.897C572.643 524.357 573.232 523.984 573.893 523.847Z" fill="#58A5EF"/>
<path d="M496.723 532.256H508.883C509.103 532.249 509.319 532.323 509.489 532.462C509.66 532.602 509.774 532.799 509.81 533.016L511.634 542.945C511.677 543.19 511.665 543.441 511.599 543.68C511.534 543.92 511.416 544.142 511.255 544.33C511.094 544.519 510.893 544.67 510.667 544.772C510.441 544.875 510.195 544.926 509.947 544.922C505.554 544.922 499.216 544.603 493.683 544.603C487.208 544.603 481.614 544.952 474.029 544.952C469.469 544.952 468.36 540.315 470.29 539.889C479.106 537.988 486.25 537.776 493.972 533.123C494.793 532.589 495.744 532.289 496.723 532.256Z" fill="#58A5EF"/>
<path d="M556.52 152.288C566.901 154.691 577.8 183.231 577.8 183.231L556.231 197.646C551.279 190.135 546.938 182.238 543.25 174.032C537.611 160.955 545.925 149.825 556.52 152.288Z" fill="#58A5EF"/>
<path opacity="0.2" d="M548.326 170.535L557.248 197.007L556.23 197.692C556.23 197.692 552.156 191.609 547.824 183.505L548.326 170.535Z" fill="black"/>
<path d="M486.858 202.177C486.949 214.646 487.694 230.155 489.549 249.405H549.285C550.06 240.282 546.017 195.487 556.52 152.273C549.95 150.999 543.303 150.156 536.623 149.749C528.169 149.262 519.693 149.262 511.239 149.749C505.408 150.316 499.63 151.333 493.957 152.79C493.957 152.79 488.834 158.325 487.299 184.28C486.995 189.465 486.828 195.365 486.858 202.177Z" fill="#58A5EF"/>
<path opacity="0.2" d="M486.858 202.177C490.476 195.578 497.042 182.334 496.115 174.807L487.299 184.356C486.995 189.465 486.828 195.365 486.858 202.177Z" fill="black"/>
<path d="M505.691 162.932C506.633 173.576 482.511 199.182 482.511 199.182L463.131 183.444C468.201 174.9 474.273 166.993 481.219 159.891C492.528 148.943 504.597 151.026 505.691 162.932Z" fill="#58A5EF"/>
<g opacity="0.2">
<path opacity="0.2" d="M496.495 507.684L496.541 521.019H507.713L507.667 507.684H496.495Z" fill="black"/>
<path opacity="0.2" d="M575.915 498.302L564.986 500.629L570.094 513.173L581.022 510.847L575.915 498.302Z" fill="black"/>
</g>
<path d="M531.805 108.573C533.431 119.566 534.936 125.907 530.71 132.825C529.367 135.091 527.43 136.945 525.108 138.187C522.787 139.429 520.17 140.012 517.54 139.873C514.911 139.734 512.371 138.877 510.193 137.396C508.016 135.915 506.286 133.867 505.189 131.472C500.827 122.349 498.881 105.866 508.473 98.9021C510.502 97.3375 512.907 96.336 515.447 95.9987C517.986 95.6615 520.57 96.0005 522.937 96.9815C525.304 97.9624 527.37 99.5507 528.927 101.586C530.484 103.621 531.476 106.031 531.805 108.573Z" fill="#FDBD9C"/>
<path d="M511.771 117.848C506.253 118.776 503.153 112.435 507.393 107.007C499.353 107.372 495.933 103.251 499.52 95.8918C502.56 89.5512 512.273 92.6531 512.273 92.6531C512.273 92.6531 520.359 81.7812 529.92 87.833C540.18 94.3257 534.738 100.332 534.738 100.332C534.738 100.332 549.467 102.369 545.667 112.952C545.09 114.572 544.073 115.999 542.731 117.073C541.388 118.147 539.773 118.827 538.067 119.035C538.067 119.035 541.837 130.378 530.665 132.719C519.493 135.061 508.214 125.725 511.771 117.848Z" fill="#263238"/>
<path d="M515.161 115.02C515.36 117.81 514.662 120.591 513.169 122.957C511.178 125.998 508.442 124.858 507.56 121.68C506.755 118.821 506.816 113.758 509.506 111.751C512.197 109.744 514.811 111.675 515.161 115.02Z" fill="#FDBD9C"/>
<path d="M510.737 249.405C510.737 249.405 520.116 334.753 525.846 366.684C532.109 401.657 564.561 511.638 564.561 511.638L584.564 507.38C584.564 507.38 562.235 404.546 559.225 369.862C555.957 332.229 549.285 249.344 549.285 249.344L510.737 249.405Z" fill="#004C8B"/>
<path d="M560.092 504.947C560.001 504.947 563.497 512.261 563.497 512.261L585.993 507.471L584.381 500.644L560.092 504.947Z" fill="#58A5EF"/>
<path opacity="0.2" d="M517.578 279.816C532.124 282.69 528.461 337.353 525.618 365.468C522.153 345.595 517.441 307.353 514.264 280.211C515.292 279.71 516.46 279.57 517.578 279.816Z" fill="black"/>
<path d="M489.564 249.405C489.564 249.405 484.791 332.928 484.7 366.989C484.593 402.417 492.482 518.434 492.482 518.434H511.406C511.406 518.434 516.498 404.485 518.672 369.695C521.058 331.682 528.825 249.405 528.825 249.405H489.564Z" fill="#004C8B"/>
<path d="M489.138 510.892C489.047 510.892 489.898 518.754 489.898 518.754H512.911L513.808 511.744L489.138 510.892Z" fill="#58A5EF"/>
</svg>
