<svg width="1440" height="793" viewBox="0 0 1440 793" fill="none" xmlns="http://www.w3.org/2000/svg">
<path fill-rule="evenodd" clip-rule="evenodd" d="M1440 19.3621C1392.69 -2.93504 1307.78 -4.9912 1183.5 11.5C1029.39 39.5147 916.28 34.9668 827.573 31.4002H827.571H827.564C785.899 29.7249 749.617 28.2659 717 30.5C650.695 35.0415 596.169 44.2578 544.36 53.0149C425.05 73.1817 320.153 90.9121 119 43.5C70.5143 36.209 31.4166 34.2739 0 36.7258V780.271C76.4332 809.141 134.944 791.632 288.5 675C348.484 629.44 392.218 612.868 432.617 597.561C480.445 579.438 523.597 563.087 583.5 502.5C682.232 402.641 814.12 376.009 962.192 346.108L970.044 344.522C974.184 343.686 978.336 342.845 982.5 342L990.323 340.412C1149.71 308.071 1351.58 267.107 1440 182.854V19.3621Z" fill="url(#paint0_radial_704_3313)"/>
<defs>
<radialGradient id="paint0_radial_704_3313" cx="0" cy="0" r="1" gradientUnits="userSpaceOnUse" gradientTransform="translate(321 207.5) rotate(90) scale(612.5 1191.18)">
<stop offset="0.214159" stop-color="#2288C5"/>
<stop offset="0.5499" stop-color="#0277BD" stop-opacity="0.672215"/>
<stop offset="1" stop-color="#0277BD" stop-opacity="0"/>
</radialGradient>
</defs>
</svg>
