<svg width="1440" height="156" viewBox="0 0 1440 156" fill="none" xmlns="http://www.w3.org/2000/svg">
<path d="M1439.5 0V73.5027C1423.02 77.1395 1404.96 80.6511 1385.26 83.9797C1341.67 100.162 1303.95 100.498 1257.54 100.91C1209.17 101.341 1151.37 101.855 1067.63 120.488C951.747 146.276 828.092 134.491 713.245 123.545C616.81 114.354 526.586 105.754 452.387 120.488C311.243 148.516 221.896 126.518 158.546 110.921C139.497 106.23 122.798 102.119 107.749 100.121C65.726 94.5404 31.9088 100.615 9.08826 104.714C6.02515 105.264 3.16013 105.779 0.5 106.225V13.7163C60.1991 6.53479 149.551 4.40206 292.323 29.4084C379.8 44.7299 429.103 45.0256 479.114 45.3255C532.448 45.6454 586.586 45.9701 688.688 64.5289C839.696 91.9774 1213.37 34.6722 1411.1 4.34909C1421.03 2.82667 1430.51 1.37225 1439.5 0Z" fill="url(#paint0_radial_134_5486)"/>
<path d="M1439.5 40.6917V154.682C1410.6 151.154 1377.82 144.301 1343.11 137.046C1252.64 118.137 1149.13 96.5002 1067.45 123.926C914.283 175.354 783.573 152.528 670.588 132.797C589.142 118.574 516.906 105.959 452.108 123.926C304.774 164.778 221.415 139.283 161.51 120.961C141.335 114.79 123.821 109.433 107.418 107.698C65.3891 103.252 31.5669 108.092 8.74295 111.358C5.81195 111.777 3.06235 112.171 0.5 112.515V27.8051C41.9567 19.2871 110.227 11.0734 292.02 51.3586C368.825 68.3787 450.794 59.6492 536.904 50.4787C630.274 40.5349 728.513 30.0726 830.316 51.3587C981.865 83.0465 1219.28 55.5556 1338.46 41.7549C1377.08 37.2836 1403.28 34.2494 1410.13 35.1306C1418.52 36.2085 1428.54 38.115 1439.5 40.6917Z" fill="url(#paint1_radial_134_5486)"/>
<defs>
<radialGradient id="paint0_radial_134_5486" cx="0" cy="0" r="1" gradientUnits="userSpaceOnUse" gradientTransform="translate(213.086 79.7498) rotate(0.59243) scale(1226.56 8560.87)">
<stop offset="0.0885417" stop-color="#DEDEDE"/>
<stop offset="0.419792" stop-color="#DEDEDE"/>
<stop offset="0.9999" stop-color="white" stop-opacity="0.394069"/>
</radialGradient>
<radialGradient id="paint1_radial_134_5486" cx="0" cy="0" r="1" gradientUnits="userSpaceOnUse" gradientTransform="translate(212.771 91.4706) rotate(0.471951) scale(1226.72 6820.96)">
<stop offset="0.398958" stop-color="#0277BD"/>
<stop offset="1" stop-color="#D9D9D9" stop-opacity="0"/>
</radialGradient>
</defs>
</svg>
